<svg xmlns="http://www.w3.org/2000/svg" width="1661.522" height="606.225" viewBox="0 0 1661.522 606.225"><defs><style>.a{opacity:0.5;mix-blend-mode:overlay;isolation:isolate;}.b{fill:#7a2c86;}</style></defs><g class="a"><g transform="translate(0 0.458)"><path class="b" d="M1633.7,240.382c16.239,53.065,31.59,103.108,22.163,161.087-19.111,117.606-122.327,202.583-245.6,202.354h-.666c-127.685-.537-250.3-65.014-342.8-121.123-14.577-8.868-29.154-17.736-43.8-26.726-153.472-93.824-312.224-190.821-492.408-219.8-87.757-14.083-176.631-17.349-244.2-18.567-90.45-1.676-194.639-.308-286.809,37.958L-2.781,250c93.251-38.7,198.235-40.136,289.237-38.445,67.807,1.218,156.975,4.477,245.112,18.689C712.9,259.35,872.179,356.7,1026.16,450.838c14.635,8.925,29.212,17.858,43.782,26.654,91.861,55.7,213.493,119.748,339.731,120.285h.6c120.235.222,220.972-82.642,239.6-197.275,9.248-56.539-5.924-105.973-22-158.315-4.026-13.266-8.223-26.891-12.027-40.7A380.4,380.4,0,0,1,1617.07-1.943l6.3.007a374.738,374.738,0,0,0-1.647,201.846C1625.451,213.613,1629.6,227.238,1633.7,240.382Z" transform="translate(2.781 1.943)"/></g><g transform="translate(0.086 0.437)"><path class="b" d="M1617.476,228.689c13.825,50.587,26.876,98.366,16.175,153.687C1612.018,494.287,1509.3,575.21,1389.176,574.988h-.73c-125.077-.595-246.236-62.041-337.8-115.493q-21.683-12.743-43.416-25.508L986.044,421.48c-157.591-92.635-301.3-171.43-464.285-196.81-86.317-13.41-173.68-16.547-240.155-17.708-88.881-1.676-191.258-.3-282.145,36.167l-2.228-5.637c91.919-36.819,195.026-38.259,284.445-36.583,66.718,1.16,154.318,4.291,240.993,17.779,164.024,25.558,308.277,104.6,466.413,197.591l21.239,12.443q21.78,12.862,43.431,25.515c90.894,53.08,211.072,114.1,334.767,114.7h.673c117.226.215,217.44-78.659,238.528-187.72,10.394-53.918-2.464-101.059-16.067-150.972-3.424-12.471-6.963-25.379-10.1-38.395a362.4,362.4,0,0,1,.014-166.868c2.142-9.076,4.649-18.087,7.5-26.927l6.368.014c-3.052,9.312-5.724,18.753-7.994,28.259a355.654,355.654,0,0,0,.057,164.067C1610.549,203.367,1614.116,216.21,1617.476,228.689Z" transform="translate(2.769 1.946)"/></g><g transform="translate(0.107 0.43)"><path class="b" d="M1601.383,216.918c11.347,48.158,22.106,93.7,10.129,146.352C1586.971,471.235,1486.979,546.3,1368.2,546.083l-.781-.007c-122.477-.595-242.182-59-332.782-109.791q-21.415-12.023-42.829-24.233L970.768,400.14c-155.8-88.029-297.754-162.878-457.853-186.975-84.8-12.758-170.707-15.7-236.036-16.855-87.3-1.554-187.87-.294-277.411,34.348l-2.235-5.637c90.579-35.064,191.932-36.325,279.782-34.756,65.515,1.139,151.653,4.09,236.816,16.905C674.9,231.446,817.4,306.559,973.748,394.882l21.038,11.905c14.284,8.08,28.538,16.218,42.757,24.176,90,50.487,208.794,108.466,329.888,109.053,116.051.709,214.209-72.664,238.149-178.085,11.669-51.325,1.1-96.145-10.079-143.637-2.765-11.748-5.638-23.925-8.166-36.16a345.528,345.528,0,0,1,5.695-158.551c2.378-8.6,5.05-17.12,8.1-25.53l6.4.007c-3.288,8.89-6.153,17.965-8.646,27.113a339.323,339.323,0,0,0-5.623,155.765C1595.781,193.108,1598.611,205.228,1601.383,216.918Z" transform="translate(2.766 1.947)"/></g><g transform="translate(0.193 0.408)"><path class="b" d="M1590.285,24.017c-15.172,48.287-19.033,99.318-11.239,147.469,1.848,11.382,4.076,22.715,6.239,33.732,8.875,45.73,17.271,88.975,4.033,138.96-27.142,102.205-126.632,173.279-242.139,173.064l-.91-.007c-119.87-.645-238.135-56.031-327.775-104.211q-21.586-11.658-43.366-23.445l-19.713-10.759C801.427,295.4,661.156,224.473,504.081,201.665c-83.466-12.156-167.8-14.907-231.967-16.01C186.377,184.23,87.574,185.376-.641,218.2l-2.113-5.695c89.247-33.13,188.723-34.405,275-32.9,64.362,1.082,148.931,3.911,232.7,16.06C663.033,218.613,803.79,289.78,958.266,373.5l19.785,10.759q21.672,11.755,43.3,23.452c89.039,47.872,206.43,102.828,324.931,103.48h.9c112.749.208,209.861-68.989,236.279-168.544,12.908-48.7,4.627-91.231-4.119-136.288-2.149-11.024-4.377-22.407-6.225-33.918-7.958-49.111-4.054-101.059,11.361-150.184,2.564-8.173,5.473-16.218,8.689-24.2l6.49.014C1596.13,6.6,1593.021,15.306,1590.285,24.017Z" transform="translate(2.754 1.95)"/></g><g transform="translate(0.272 0.394)"><path class="b" d="M1585.11-1.952l6.669.014c-3.761,8.109-7.178,16.447-10.157,24.856-16.253,45.379-22.1,93.5-16.8,139.11,1.261,10.652,2.808,21.2,4.363,31.425,6.411,43.352,12.45,84.3-2.127,131.675-29.67,96.46-128.659,163.479-240.971,163.207h-.967c-116.546-.645-228.514-50.15-322.7-98.516-13.8-7.049-27.521-14.219-41.318-21.389l-21.038-10.938C816.129,293.324,661.955,213.418,495.252,190.159c-82-11.49-164.891-14.126-227.92-15.15-84.089-1.433-181.144-.287-268.084,30.737l-1.991-5.752c87.85-31.26,185.513-32.406,270.219-31.038,63.137,1.024,146.259,3.668,228.586,15.208C663.782,207.544,818.5,287.758,942.868,352.17l21.038,10.874c13.8,7.163,27.535,14.334,41.26,21.4,93.566,48.065,204.7,97.2,319.982,97.835,110.178.752,207.175-64.763,236.165-158.974,14.126-46.045,8.151-86.317,1.884-128.953-1.569-10.286-3.1-20.9-4.363-31.611-5.43-46.511.473-95.593,17.1-141.882C1578.67,13.17,1581.779,5.548,1585.11-1.952Z" transform="translate(2.743 1.952)"/></g><g transform="translate(0.301 0.38)"><path class="b" d="M1577.22-1.954,1584-1.94q-6.1,11.8-10.938,23.71c-17.457,42.528-25.172,87.8-22.4,130.858.645,9.806,1.583,19.62,2.464,29.126,3.932,40.873,7.665,79.569-8.216,124.282-32.249,90.7-130.772,153.651-239.811,153.444h-1.082c-113.938-.638-224.532-47.285-317.682-92.864q-20.233-9.939-40.53-20l-21.046-10.394c-122.434-60.465-274.8-135.715-438.347-157.641-80.45-10.745-161.875-13.259-223.808-14.219-82.52-1.311-177.82-.229-263.364,28.868l-1.984-5.7c86.51-29.448,182.412-30.537,265.484-29.226,62.055.974,143.666,3.481,224.467,14.291,164.518,22.048,317.374,97.535,440.224,158.186l21.06,10.394c13.539,6.748,27.027,13.374,40.515,19.993,92.563,45.286,202.347,91.625,315.025,92.262h1.082c106.51.2,202.712-61.124,234.116-149.4,15.408-43.51,11.769-81.475,7.922-121.682-.953-9.57-1.906-19.384-2.564-29.3-2.822-44.025,5.079-90.214,22.851-133.58C1570.35,12.322,1573.567,5.181,1577.22-1.954Z" transform="translate(2.739 1.954)"/></g><g transform="translate(0.38 0.358)"><path class="b" d="M1564.394,20.686c-18.653,39.863-28.374,82.227-28.008,122.541.093,9.269.373,18.41.723,27.492,1.39,38.266,2.7,74.412-14.448,116.281-35.329,86.21-131.109,143.845-238.5,143.644h-1.275c-111.353-.695-220.477-44.491-312.625-87.234q-19.846-9.219-39.677-18.6L909.417,314.9C788.494,258.183,637.93,187.6,477.6,167.081,398.535,157,318.629,154.61,257.9,153.714c-81-1.182-174.489-.208-258.758,27.048l-1.87-5.745c85.128-27.571,179.21-28.545,260.706-27.356,60.895.96,141.058,3.288,220.348,13.431,161.316,20.637,312.3,91.46,433.655,148.308l21.153,9.964q19.889,9.305,39.691,18.546c91.525,42.492,199.94,85.987,310.075,86.682h1.261c104.984.208,198.5-55.938,232.941-139.905,16.6-40.651,15.337-76.131,13.954-113.731-.337-9.147-.631-18.352-.731-27.679-.351-41.167,9.542-84.5,28.567-125.213,3.094-6.647,6.562-13.359,10.329-20.021l6.9.021Q1569.674,9.4,1564.394,20.686Z" transform="translate(2.728 1.957)"/></g><g transform="translate(0.466 0.351)"><path class="b" d="M1568.31-1.951c-4.563,7.206-8.818,14.4-12.579,21.475-19.813,37.077-31.382,76.589-33.581,114.3-.5,8.531-.824,16.955-1.074,25.25-1.1,35.83-2.185,69.67-20.666,108.881-37.929,80.321-133.15,134.031-237.282,133.838-.487-.007-.967-.064-1.4-.064-108.681-.695-216.495-41.583-307.589-81.532-14.1-6.2-28.259-12.529-42.471-18.846l-17.6-7.794C774.588,240.611,625.894,174.752,468.754,155.576,391.033,146.1,312.7,143.957,253.119,143.055,173.693,141.93,82.025,142.79-.968,168.3l-1.748-5.745c83.781-25.759,176-26.676,255.907-25.551,59.763.9,138.286,3.109,216.251,12.571,158.1,19.248,307.281,85.35,427.115,138.429l17.6,7.837q21.243,9.5,42.406,18.8c90.565,39.706,197.648,80.35,305.182,81.03.473.007.924.057,1.4.057,101.825.2,194.847-52.113,231.824-130.4,17.937-38.044,18.961-71.274,20.05-106.453.265-8.352.587-16.776,1.089-25.358,2.242-38.624,14.061-79,34.3-116.854,3.295-6.168,6.877-12.4,10.752-18.624Z" transform="translate(2.716 1.958)"/></g><g transform="translate(0.494 0.33)"><path class="b" d="M1560.642-1.947c-4.907,6.841-9.47,13.667-13.546,20.379-20.874,34.233-34.441,70.959-39.169,106.066-1.125,7.8-1.919,15.437-2.772,23-3.653,33.409-7.149,64.877-26.962,101.417-40.53,74.455-135.234,124.16-236.05,123.981l-1.5-.007c-105.78-.745-207.913-36.9-302.532-75.894q-20.147-8.381-40.35-16.841l-18.94-7.915C728.733,209.662,602.588,160.558,459.918,144.069c-76.267-8.8-153.1-10.824-211.523-11.662-77.857-1.053-167.706-.193-249.424,23.445l-1.683-5.817c82.5-23.882,172.9-24.742,251.172-23.682,58.552.831,135.629,2.858,212.139,11.726,143.451,16.554,270.025,65.823,420.546,128.6l18.925,7.908q20.232,8.478,40.35,16.783c94.075,38.746,195.549,74.72,300.226,75.458l1.569.007c98.623.186,191.179-48.252,230.663-120.844,19.269-35.437,22.65-66.367,26.275-99.118.795-7.686,1.676-15.372,2.772-23.18,4.857-35.959,18.675-73.466,39.971-108.416,3.467-5.63,7.249-11.433,11.318-17.242Z" transform="translate(2.712 1.961)"/></g><g transform="translate(0.58 0.315)"><path class="b" d="M1553-1.949c-5.329,6.533-10.236,13-14.62,19.291C1516.4,48.789,1500.9,82.6,1493.571,115.213c-1.583,6.963-2.93,13.861-4.326,20.7-6.239,30.924-12.171,60.157-33.295,93.953-43.8,69.67-135.729,114.368-234.653,114.175l-1.819-.007c-103.1-.788-203.9-34.226-297.446-70.243-13.066-5.115-26.189-10.229-39.269-15.329l-19.291-7.55C740.844,203.1,601.87,148.952,451.084,132.563c-74.7-8.13-150.134-10.036-207.469-10.809-76.274-.989-164.368-.186-244.7,21.64L-2.7,137.512c81.109-22.005,169.747-22.8,246.394-21.812,57.449.774,133.071,2.672,208.006,10.8,151.638,16.518,291.028,70.844,413.963,118.8l19.3,7.536c13.066,5.115,26.2,10.222,39.2,15.336,93.072,35.766,193.257,69.018,295.333,69.82,97.363.788,188.386-42.994,231.308-111.324,20.594-32.843,26.382-61.532,32.5-91.911,1.411-6.9,2.815-13.861,4.405-20.881,7.514-33.345,23.323-67.95,45.723-99.992,3.216-4.6,6.676-9.312,10.365-14.026.494-.6.91-1.211,1.454-1.819Z" transform="translate(2.7 1.963)"/></g><g transform="translate(0.659 0.301)"><path class="b" d="M1545.379-1.951c-.559.609-1.11,1.218-1.655,1.819-5.079,5.552-9.749,11.06-14.018,16.382-23.051,28.588-40.486,59.612-50.465,89.626-2.013,6.232-3.968,12.407-5.859,18.452-8.825,28.51-17.163,55.372-39.749,86.5-46.325,63.674-137.763,104.547-233.292,104.3h-2c-100.443-.8-199.919-31.5-292.425-64.548q-19.6-7.135-39.333-14.3l-18.46-6.69C727.058,185.762,589.839,136.042,442.2,121.049c-73.237-7.457-147.161-9.241-203.35-9.885-74.705-.931-161.044-.244-240.033,19.771l-1.5-5.874c79.712-20.2,166.538-20.945,241.609-19.957,56.3.659,130.407,2.435,203.894,9.892,148.372,15.114,286.021,64.956,407.38,108.9l18.46,6.7q19.674,7.221,39.319,14.3c92.033,32.865,190.85,63.387,290.376,64.183h2.006c93.652.179,183.15-39.684,228.371-101.825,21.977-30.293,30.2-56.74,38.9-84.7,1.905-6.168,3.8-12.278,5.852-18.567,10.236-30.68,28.037-62.37,51.511-91.575,2.615-3.195,5.358-6.468,8.2-9.785,1.325-1.511,2.672-3.023,4.054-4.6Z" transform="translate(2.689 1.965)"/></g><g transform="translate(0.745 0.287)"><path class="b" d="M1537.906-1.953c-1.64,1.576-3.274,3.087-4.785,4.6-4.3,4.284-8.316,8.4-12.135,12.507-24.076,25.809-43.452,53.975-56.1,81.51-2.486,5.38-4.857,10.766-7.163,16.031-11.483,26.067-22.385,50.687-46.4,79.1-49.641,58.581-138.286,94.669-231.817,94.5l-2.306-.007c-97.778-.852-195.872-28.825-287.353-58.9-12.65-4.262-25.3-8.467-38-12.729l-19-6.4C713.281,168.375,577.8,123.2,433.371,109.479c-71.976-6.733-144.325-8.381-199.3-8.976-73.129-.86-157.656-.229-235.362,17.908l-1.383-5.874c78.373-18.316,163.322-19,236.824-18.08,55.092.587,127.627,2.235,199.775,9.033,145.163,13.718,281.007,59.075,400.8,99.025l19.054,6.39q18.975,6.393,37.937,12.729c84.77,27.886,183.78,57.743,285.491,58.6l2.292.007c91.8.165,178.68-35.086,227.153-92.327,23.481-27.808,34.183-52.005,45.5-77.657,2.364-5.322,4.742-10.7,7.235-16.153,12.894-28.066,32.679-56.79,57.105-83.079,1.655-1.755,3.359-3.51,5.05-5.258l.186-.179c2.436-2.543,4.907-5.021,7.529-7.557Z" transform="translate(2.677 1.967)"/></g><g transform="translate(0.831 0.05)"><path class="b" d="M1530.568-1.756c-3.138,2.593-6.132,5.072-8.911,7.55l-.186.179c-3.274,2.779-6.3,5.552-9.262,8.281-25,23.023-46.36,48.409-61.783,73.316-2.779,4.6-5.523,9.069-8.195,13.61-14.219,23.646-27.65,46.031-53.309,71.833-52.156,52.442-140.256,84.8-230.341,84.626h-2.529c-99.8-.924-198.013-27.994-282.3-53.337-11.375-3.41-22.815-6.941-34.247-10.408l-22.02-6.776c-117.935-35.881-251.666-76.639-392.954-88.946-70.522-6.067-141.352-7.536-195.241-8.123-71.561-.8-154.325-.236-230.706,16.1l-1.254-5.938C74.318,83.758,157.5,83.2,229.374,83.995c54,.58,125.02,2.056,195.657,8.18,141.954,12.378,275.992,53.194,394.229,89.2l22.02,6.7c11.44,3.531,22.815,7.006,34.247,10.48,83.874,25.164,181.6,52.113,280.541,53.022l2.514.007c88.588.172,175-31.454,226.05-82.879,25.114-25.265,38.359-47.342,52.392-70.687,2.729-4.477,5.458-9,8.259-13.6,15.68-25.4,37.392-51.21,62.814-74.655.365-.365.716-.659,1.132-1.024,3.6-3.324,7.421-6.655,11.475-10.036h.057a2.041,2.041,0,0,1,.487-.48l4.914.014c1.075-.122,2.163-.179,3.274-.236-.072.057-.2.122-.251.236Z" transform="translate(2.665 2)"/></g><g transform="translate(0.91 0.258)"><path class="b" d="M1523.473-1.95a1.006,1.006,0,0,1-.358.236c-4.971,3.56-9.57,6.956-13.954,10.272-1.927,1.447-3.875,2.958-5.759,4.413-25.888,20.229-49.169,42.765-67.435,65.135-2.98,3.746-5.946,7.371-8.8,11-17.113,21.275-33.252,41.4-60.608,64.663-55.486,47.127-140.772,74.992-228.636,74.827-.967,0-2-.064-3.023-.064-96.868-.91-193.88-25.007-277.2-47.628l-55.494-15.3C685.776,133.658,553.793,97.448,415.715,86.459c-68.953-5.451-138.394-6.726-191.129-7.249-70.049-.681-150.929-.229-226.1,14.276l-1.139-5.938C73.061,72.921,154.371,72.469,224.607,73.157c52.908.516,122.413,1.805,191.538,7.256C554.839,91.459,687.115,127.727,803.79,159.8l55.486,15.3c82.972,22.435,179.547,46.468,275.691,47.378,87.427.831,172.605-26.554,227.655-73.309,26.934-22.836,42.886-42.779,59.828-63.882,2.851-3.632,5.817-7.249,8.8-11,17.844-21.884,40.537-43.932,65.637-63.81.9-.781,1.884-1.576,2.837-2.292,3.7-2.9,7.586-5.86,11.769-8.947.544-.358,1.16-.781,1.7-1.2Z" transform="translate(2.654 1.971)"/></g><g transform="translate(0.996 0.244)"><path class="b" d="M1516.744-1.952c-.48.3-1.024.609-1.511.9C1508.5,3,1502.375,6.8,1496.809,10.484c-.731.415-1.461.9-2.185,1.39a533.827,533.827,0,0,0-73.172,56.955l-8.56,8.094c-20.208,19.033-39.319,37.041-68.71,57.807-58.022,40.945-142.649,65.128-226.989,64.963l-3.438-.007c-93.974-.96-185.965-21.232-272.138-41.984l-54.763-13.431c-114.862-28-245.1-59.727-380.031-69.3-67.5-4.8-135.428-5.96-187-6.418C151.4,67.883,72.207,68.334-1.625,81.027l-1.017-6C71.669,62.281,151.167,61.823,219.827,62.5c51.7.458,119.755,1.619,187.433,6.418,135.421,9.635,265.95,41.425,381.056,69.491l54.706,13.424c85.873,20.63,177.44,40.9,270.806,41.8,84.154.946,169.074-23.058,226.845-63.817,29.04-20.523,47.972-38.4,68.051-57.32l8.617-8.037a526.271,526.271,0,0,1,65.952-52.306c2.615-1.812,5.344-3.617,8.016-5.365q5-3.277,10.552-6.712h.05c1.1-.723,2.113-1.39,3.224-2.049Z" transform="translate(2.642 1.973)"/></g><g transform="translate(1.089)"><path class="b" d="M1510.44-1.756c-1.1.544-2.128,1.032-3.095,1.576-8.252,4.1-15.15,7.657-21.518,11.089-.838.494-1.748.967-2.615,1.454a729.117,729.117,0,0,0-76.36,47.378l-6.239,4.477c-24.026,17.02-46.618,33.087-78.882,51.683-61.339,35.293-143.114,55.3-224.954,55.15l-4.183-.014c-90.944-.953-181.781-18.51-267.06-36.346l-53.982-11.547c-113.358-24-241.845-51.253-373.57-59.491-66.1-4.119-132.52-5.15-182.949-5.552-66.9-.552-144.282-.215-216.774,10.666l-.888-6C70.343,51.832,148.021,51.488,215.1,52.047c50.494.394,117.033,1.425,183.264,5.544,132.155,8.245,260.878,35.558,374.472,59.684l53.925,11.483c85.028,17.779,175.507,35.265,265.9,36.225,82.17.881,164.618-18.947,226.065-54.3,31.984-18.467,54.491-34.462,78.387-51.439l6.225-4.47a746.853,746.853,0,0,1,65.844-41.583c4.534-2.6,9.147-5.129,13.739-7.607,2.729-1.447,5.595-2.951,8.56-4.463.057,0,.057-.064.115-.064.967-.537,2-1.074,3.037-1.626a4.607,4.607,0,0,0,1.031-.537c.423-.186.838-.423,1.332-.666l7.858.014a1.764,1.764,0,0,0,.545-.244c-.108.064-.236.186-.344.244Z" transform="translate(2.629 2.007)"/></g><g transform="translate(1.16 0.215)"><path class="b" d="M1504.791-1.948c-.6.244-1.2.48-1.805.716C1501.718-.745,1500.5-.2,1499.3.279c-7.643,3.13-15.043,6.146-22.306,9.284-2.6,1.146-5.287,2.292-7.872,3.438-25.465,11.089-50.673,23.331-76.854,37.149-27.263,14.412-55.443,29.376-92.95,46.5-65.013,29.663-148.05,46.217-227.855,45.279-87.807-.953-173.988-15.043-261.988-30.644l-53.194-9.67C644.486,81.546,517.747,58.789,389.167,51.948c-64.655-3.453-129.561-4.362-178.9-4.7-65.329-.487-140.951-.208-212.1,8.8l-.781-6c71.589-9.069,147.391-9.348,212.956-8.868,49.4.4,114.361,1.261,179.145,4.706,128.945,6.9,255.863,29.663,367.832,49.792l53.266,9.606c87.7,15.609,173.63,29.627,260.95,30.594,78.9,1.175,161.015-15.444,225.305-44.749,37.256-17.063,65.393-31.962,92.606-46.325,21.755-11.526,42.836-21.9,63.853-31.425a.176.176,0,0,1,.122-.05c7.041-3.2,14.076-6.339,21.16-9.355.609-.244,1.211-.537,1.884-.774,1.024-.487,2.113-.9,3.2-1.332a8.131,8.131,0,0,1,1.168-.473c2.657-1.153,5.387-2.3,8.109-3.381Z" transform="translate(2.619 1.977)"/></g><g transform="translate(1.254 0.201)"><path class="b" d="M1500.42-1.943a15.131,15.131,0,0,0-1.877.6c-1.2.358-2.364.723-3.51,1.082-1.218.358-2.364.788-3.582,1.139-.057,0-.057.064-.115.064h-.179c-7.822,2.529-15.458,5-23.016,7.464-4.914,1.626-9.821,3.252-14.806,4.943a.176.176,0,0,0-.122.05c-23.266,7.887-47.664,16.748-75.536,27.349-36.84,14.033-66.962,25.057-100.8,36.8-68.652,23.789-149.146,36.418-226.58,35.544-84.462-1.01-166.28-11.941-256.9-25.014l-52.421-7.794C630.7,64.224,505.769,45.936,380.326,40.377c-63.2-2.722-126.653-3.446-174.84-3.782-66.6-.43-137.563-.193-207.44,6.991l-.652-6.053c70.185-7.2,144.225-7.349,208.164-6.984,48.187.322,111.7,1.053,175.026,3.775C506.327,39.883,631.433,58.171,741.84,74.3l52.471,7.794c90.307,13.073,171.953,23.94,256.057,24.935,76.761,1.125,156.466-11.619,224.5-35.164,33.818-11.748,63.853-22.772,100.636-36.74,22.249-8.5,42.292-15.852,61.382-22.471,8.094-2.894,16.046-5.537,23.868-8.188,1.511-.48,2.965-.967,4.42-1.447.365-.122.738-.236,1.089-.358,4.663-1.569,9.441-3.073,14.226-4.635Z" transform="translate(2.606 1.979)"/></g><g transform="translate(1.569 0.179)"><path class="b" d="M1498.214-1.932c-1.031.244-2,.48-2.965.666-1.633.415-3.274.781-4.857,1.132-1.2.3-2.364.544-3.567.852l-3.818.9-6.9,1.619-17.027,4.019c-7.564,1.8-15.079,3.6-22.464,5.408-25.623,6.254-50.286,12.557-73.717,18.632-32.292,8.352-63.13,15.924-98.8,24.692l-9.864,2.471a907.611,907.611,0,0,1-225.284,25.716c-87.134-1.01-174.589-10.745-251.766-19.355l-51.69-5.852C611.385,46.284,493.47,33.1,371.3,28.877c-61.812-2.12-123.745-2.658-170.793-2.93-65.028-.3-134.225-.186-202.834,5.186l-.236-3.388a22.685,22.685,0,0,1,.738-2.729c68.538-5.315,137.505-5.423,202.4-5.122,47.055.272,109.053.817,170.915,2.923,122.42,4.233,245.785,18.03,354.673,30.164l51.7,5.845c77,8.56,164.339,18.288,251.179,19.3A900.534,900.534,0,0,0,1252.773,52.58l9.878-2.464c35.68-8.768,66.5-16.347,98.738-24.692,18.238-4.749,37.256-9.627,56.955-14.484a.338.338,0,0,1,.236-.064c8.4-2.1,16.941-4.2,25.558-6.311h.057c4.477-1.074,8.968-2.163,13.517-3.238l14.09-3.309Z" transform="translate(2.562 1.982)"/></g><g transform="translate(4.978 0.165)"><path class="b" d="M1499.271-1.912c-1.261.186-2.6.423-3.933.6-1.332.244-2.657.415-4.054.595-1.275.244-2.55.423-3.825.595-3.274.544-6.59,1.017-9.914,1.569-.48.05-1.039.179-1.526.229-1.218.186-2.421.365-3.639.544a.483.483,0,0,1-.236.057c-4.914.716-9.756,1.5-14.591,2.213-3.4.537-6.791,1.017-10.186,1.547-10.652,1.626-21.239,3.173-31.719,4.85a.339.339,0,0,0-.237.064c-10.379,1.547-20.608,3.173-30.78,4.721q-19.9,3.148-39.118,6.1c-21.561,3.345-42.829,6.511-64.627,9.742-16.9,2.514-34.075,5.021-51.955,7.779a1373.616,1373.616,0,0,1-223.98,16.038c-81.439-1.06-163.1-7.328-242.16-13.41l-4.542-.308c-16.948-1.368-33.961-2.672-50.909-3.983C594.927,29.076,478.7,20.265,359.55,17.364c-60.357-1.447-120.779-1.855-166.617-2.07C133.3,15.129,64.4,15.115-2.086,18.438a9.573,9.573,0,0,1,.609-1.211A38.483,38.483,0,0,1,1.8,12.278C67.075,9.069,134.46,9.069,192.947,9.241c45.888.215,106.31.623,166.8,2.07C478.947,14.2,595.3,23.023,707.776,31.583c17.006,1.3,33.961,2.672,50.966,3.976l4.542.38c78.939,6.01,160.478,12.285,241.738,13.345,72.4.989,147.362-4.448,222.941-15.988,17.937-2.686,35.2-5.258,52.019-7.772,21.8-3.223,43.073-6.4,64.562-9.749,12.844-1.97,25.938-4,39.118-6.1,3.89-.595,7.765-1.2,11.7-1.855a1.719,1.719,0,0,0,.544-.057c16.526-2.572,33.438-5.136,50.565-7.715,4.491-.659,8.954-1.383,13.445-2.034Z" transform="translate(2.086 1.984)"/></g><g transform="translate(14.935)"><path class="b" d="M1514.027-1.72c-1.039.057-2.02.115-2.98.229-.845.057-1.64.129-2.421.236h-.057c-1.819.122-3.582.236-5.329.415-1.275.122-2.55.179-3.818.294-1.347.129-2.658.236-3.99.365-1.819.115-3.7.294-5.516.466h-.308l-2.163.179c-2.672.244-5.279.415-7.88.652h-.179c-2.658.236-5.279.408-7.879.659-1.275.115-2.493.165-3.7.287-1.325.122-2.658.236-4,.3a.482.482,0,0,1-.236.057c-1.332.115-2.672.179-4,.294-2.056.179-4.112.294-6.168.473-6.97.53-13.868,1.06-20.709,1.533h-.057c-.852.057-1.7.122-2.543.186l-21.561,1.526c-7.092.537-14.169,1.01-21.2,1.476a1.72,1.72,0,0,1-.544.057q-32.525,2.3-64.3,4.355c-21.2,1.418-42.263,2.765-63.516,4.069-20.036,1.225-40.336,2.521-61.024,3.875-78.072,5.172-153.035,7.278-222.633,6.354-71.274-.981-143.322-4.019-212.934-6.934l-28.7-1.2q-25.057-1.053-50.128-2.034c-110.966-4.384-225.628-8.9-341.328-10.458C283.376,5.214,224.466,4.92,179.66,4.777,122.017,4.612,60.872,4.547-.7,5.944A9,9,0,0,1,.937,4.5,38.67,38.67,0,0,1,7.427.271c.358-.179.788-.365,1.146-.544,58.488-1.16,116.367-1.168,171.1-1,44.806.143,103.774.437,162.62,1.211C458.059,1.481,572.843,6,683.751,10.385c16.769.638,33.474,1.347,50.178,2.034l28.7,1.2c69.62,2.923,141.61,5.96,212.734,6.941,69.455.981,144.232-1.175,222.2-6.354,20.723-1.361,40.952-2.593,61.052-3.89,21.239-1.289,42.27-2.579,63.452-4q42.431-2.815,86-5.953l21.6-1.461c3.517-.236,7.084-.544,10.609-.781l52.657.107a1.765,1.765,0,0,0,.544-.244c-.107.064-.236.186-.344.244Z" transform="translate(0.696 2.007)"/></g></g></svg>