<svg xmlns="http://www.w3.org/2000/svg" width="1919.969" height="533.706" viewBox="0 0 1919.969 533.706"><defs><style>.a{opacity:0.5;mix-blend-mode:overlay;isolation:isolate;}.b{fill:#7a2c86;}</style></defs><g class="a"><g transform="translate(0.638)"><path class="b" d="M1916.42,259.61l-.014,6.01c-176.237-4.935-347.539,41.9-480.524,84.935l-2.307.788c-193.787,62.714-394.135,127.548-592.951,89.633a300.006,300.006,0,0,1-58.81-17.493,9.148,9.148,0,0,1-1.7-.723c-34.3-14.355-63.567-34.52-84.225-57.986-2.966-3.453-5.8-6.9-8.4-10.48-.3-.365-.537-.723-.781-1.039-.065-.115-.122-.179-.122-.229a8.813,8.813,0,0,1-.91-1.282c-.122-.057-.122-.115-.179-.193a.2.2,0,0,1-.057-.172c-.129-.115-.186-.186-.186-.244-1.511-2.056-2.9-4.183-4.162-6.232-.544-.917-1.089-1.712-1.569-2.55v-.064l-.064-.065c-.595-.967-1.139-1.941-1.683-2.966V339.2c-.609-1.039-1.146-2.063-1.7-3.095-.595-1.153-1.2-2.3-1.683-3.453-.544-1.039-1.031-2.113-1.5-3.152a.452.452,0,0,1-.129-.244c-.537-1.211-1.024-2.486-1.5-3.7a99.039,99.039,0,0,1-3.918-11.325,101.2,101.2,0,0,1-2.521-10.537,109.619,109.619,0,0,1-1.963-21.919c.007-2.3.072-4.663.258-6.963a123.292,123.292,0,0,1,2.693-18.94c.43-2.12.989-4.241,1.533-6.361a156.622,156.622,0,0,1,5.6-16.769c.788-1.862,1.583-3.8,2.435-5.738q3.191-7.263,7.285-14.513c.981-1.819,2.013-3.574,3.1-5.387.179-.3.365-.659.552-.967l2.615-4.291c1.325-2.178,2.665-4.362,4-6.533,1.16-1.941,2.314-3.933,3.467-5.924,1.762-3.087,3.532-6.232,5.1-9.434,1.347-2.55,2.615-5.158,3.711-7.758.852-1.927,1.7-3.925,2.435-5.924.731-2.049,1.4-4.112,2.013-6.16a62.464,62.464,0,0,0,1.884-8.288c2.579-14.72-.308-27.378-8.524-37.686C685.254,91.769,647.31,85.572,620.19,87.048,411.282,98.337,205.016,156.424-2.911,230.685l.014-6.4C204.787,150.185,410.938,92.27,619.9,80.988c28.517-1.583,68.645,5.215,87.85,29.348,11,13.825,13.632,31.146,7.715,51.482-.544,1.862-1.089,3.689-1.762,5.5a120.484,120.484,0,0,1-5.781,13.488c-1.454,2.908-2.98,5.816-4.556,8.646a.059.059,0,0,1-.057.064,4.791,4.791,0,0,1-.423.731c-.981,1.755-2.013,3.5-3.044,5.251-1.275,2.185-2.55,4.362-3.89,6.476-.609,1.031-1.218,2-1.819,3.03l-2.615,4.284c-.48.853-1.031,1.7-1.447,2.55-1.225,1.934-2.249,3.8-3.352,5.738-2.428,4.541-4.613,9.018-6.5,13.431-.91,1.991-1.762,4-2.557,5.989a135.818,135.818,0,0,0-5.115,16.217,62.581,62.581,0,0,0-1.469,6.4.449.449,0,0,1-.057.251.165.165,0,0,1-.057.115,117.954,117.954,0,0,0-2.156,18.768c-.129,2.722-.079,5.394.043,7.987a99.6,99.6,0,0,0,.953,10.48,93.985,93.985,0,0,0,2.822,13.582,1.644,1.644,0,0,0,.115.537,85.52,85.52,0,0,0,2.772,8.481c.537,1.511,1.082,3.03,1.741,4.542.243.666.544,1.275.845,1.934a4.377,4.377,0,0,0,.3.8c.057.057.057.179.115.236.544,1.268,1.153,2.543,1.755,3.753l.186.373c.48.967.96,1.934,1.5,2.908.122.172.186.365.308.537.487.974,1.024,1.891,1.562,2.858.487.781.974,1.633,1.39,2.421.186.244.308.423.43.6.544.9,1.082,1.812,1.683,2.722,27.958,43.531,86.317,78.445,154.461,91.474,197.311,37.672,396.872-26.912,589.943-89.4l2.292-.781C1567.478,301.644,1739.338,254.56,1916.42,259.61Z" transform="translate(2.911 -80.771)"/></g><g transform="translate(0.602 25.132)"><path class="b" d="M1916.422,254.226l-.014,5.989c-173.758-4.262-344.516,40.336-477.429,81.317l-1.691.494c-192.891,59.928-392.316,121.854-590.594,85.694a311.027,311.027,0,0,1-62.865-18.4c-2.006-.788-3.933-1.7-5.874-2.557a1.877,1.877,0,0,0-.544-.236c-33.574-14.835-61.869-34.992-81.382-58.28a.224.224,0,0,1-.064-.122c-2.658-3.152-5.129-6.368-7.421-9.577a27.493,27.493,0,0,1-1.633-2.493,1.552,1.552,0,0,1-.308-.358v-.057c-.05-.007-.05-.064-.05-.064a2.542,2.542,0,0,1-.308-.48,100.423,100.423,0,0,1-5.437-8.975,6.025,6.025,0,0,1-.716-1.34,9.4,9.4,0,0,1-.666-1.153v-.057a30.417,30.417,0,0,1-1.44-2.908,10.753,10.753,0,0,1-.731-1.39c-.244-.544-.487-1.089-.724-1.64-.544-1.089-.967-2.113-1.447-3.209-.544-1.268-1.024-2.607-1.5-3.882-.845-2.185-1.626-4.355-2.285-6.6a91.345,91.345,0,0,1-2.593-9.871,100.55,100.55,0,0,1-1.734-10.294,112.848,112.848,0,0,1-.387-20.709c.193-2.364.437-4.656.738-7.013a133.68,133.68,0,0,1,3.675-17.686.165.165,0,0,0,.057-.115.448.448,0,0,0,.057-.251c.609-2.041,1.218-4.04,1.956-6.039a134.329,134.329,0,0,1,6.017-15.122c.917-1.941,1.819-3.94,2.8-5.867,1.211-2.3,2.428-4.656,3.761-7.027l1.526-2.729c.423-.774.91-1.619,1.325-2.4,1.16-2,2.314-4,3.345-6.046,1.762-3.152,3.467-6.3,4.986-9.563,1.34-2.607,2.557-5.272,3.711-7.93.852-2.049,1.64-4.119,2.371-6.168.064-.057.064-.186.064-.251a4.454,4.454,0,0,0,.365-.96.059.059,0,0,0,.057-.064c.852-2.536,1.648-5.129,2.314-7.736.43-1.755.8-3.582,1.1-5.265a54.185,54.185,0,0,0,.867-10.179,42.891,42.891,0,0,0-9.821-27.557c-17.994-21.841-56.124-27.894-83.2-26.561-211.38,10.859-421.1,69.14-617.571,135.915l.021-6.3C193.392,153.425,402.924,95.338,614.3,84.486c28.588-1.526,68.774,5.143,88.222,28.725a47.184,47.184,0,0,1,9.047,16.991A48.214,48.214,0,0,1,713.73,145.7a67.6,67.6,0,0,1-2.149,15.852c-.731,2.851-1.59,5.695-2.564,8.417a111.328,111.328,0,0,1-5.781,13.925c-1.454,3.13-3.03,6.146-4.613,9.183a3,3,0,0,0-.308.537c-.967,1.827-1.934,3.574-2.908,5.322s-2.006,3.51-2.98,5.272l-.8,1.454-.666,1.211c-1.7,3.08-3.274,6.1-4.735,9.126-1.1,2.113-2.07,4.233-2.98,6.354a146.29,146.29,0,0,0-5.3,14.155c-.724,2.3-1.339,4.542-1.941,6.776q-.645,2.45-1.1,4.907a106.167,106.167,0,0,0-1.963,12.521,75.488,75.488,0,0,0-.494,8.18,86.286,86.286,0,0,0,.695,14.771,64.539,64.539,0,0,0,1.2,7.5c.3,1.948.781,3.89,1.261,5.759.48,1.934,1.024,3.883,1.683,5.817a18.627,18.627,0,0,0,.781,2.364c.365,1.16.781,2.307,1.268,3.453a27.488,27.488,0,0,0,.967,2.615c.179.487.415,1.024.666,1.569.358.845.716,1.7,1.139,2.543a2.171,2.171,0,0,0,.244.6c.129.251.236.552.365.8.415.852.774,1.7,1.261,2.55.48,1.031,1.024,1.991,1.569,3.023l.365.731a19.886,19.886,0,0,0,1.146,1.934c17.622,30.795,51.11,57.793,93.093,76.224a9.154,9.154,0,0,0,1.7.723,302.965,302.965,0,0,0,65.945,19.871c196.846,35.9,395.539-25.773,587.693-85.472l1.748-.544C1570.574,294.676,1741.876,249.906,1916.422,254.226Z" transform="translate(2.916 -84.279)"/></g><g transform="translate(0.58 50.241)"><path class="b" d="M1916.413,248.969l-.029,6.06c-172.656-3.424-342.2,38.753-474.257,77.442l-1.146.294c-191.967,57.1-390.561,116.052-588.231,81.661a320.774,320.774,0,0,1-76.116-23.216c-1.275-.544-2.493-1.16-3.753-1.762-31.876-15.014-58.538-34.792-76.547-57.3-2.529-3.087-4.885-6.3-7.056-9.52-.666-1.1-1.39-2.113-2-3.216a2.454,2.454,0,0,1-.416-.659,108.119,108.119,0,0,1-5.437-9.642c-.3-.6-.6-1.146-.845-1.769a.4.4,0,0,1-.122-.229,18.539,18.539,0,0,1-.96-2.178,27.476,27.476,0,0,1-1.268-2.787v-.129a26.467,26.467,0,0,1-1.146-2.715c-.415-1.039-.831-2.07-1.2-3.087,0-.136-.065-.193-.065-.315-.838-2.3-1.554-4.613-2.221-6.97-.244-.845-.48-1.755-.659-2.658a.452.452,0,0,1-.129-.244,89.157,89.157,0,0,1-2.149-11.2,92.256,92.256,0,0,1-.888-10.179,88.407,88.407,0,0,1,.079-10.666c.186-2.844.423-5.68.86-8.589.308-2.35.738-4.785,1.225-7.264.8-3.818,1.769-7.686,2.987-11.554.365-1.461.86-2.966,1.4-4.484.666-2.113,1.461-4.291,2.378-6.468a139.277,139.277,0,0,1,5.766-12.887,7.818,7.818,0,0,1,.487-1.024l.365-.738c.788-1.5,1.583-3.08,2.371-4.642,1.64-3.216,3.281-6.476,4.807-9.807,1.218-2.672,2.371-5.322,3.524-7.987.788-2.063,1.64-4.176,2.307-6.289a.193.193,0,0,1,.072-.122,4.764,4.764,0,0,0,.236-.666,92.545,92.545,0,0,0,3.116-11.318,13.52,13.52,0,0,0,.358-2.178,48.072,48.072,0,0,0,.81-10.473c.064-.057.064-.186.064-.251a.314.314,0,0,0-.057-.229,44.22,44.22,0,0,0-1.383-10.294,42.281,42.281,0,0,0-8.861-16.74c-18.245-21.275-56.5-27.227-83.624-25.945-209.99,10.2-413.648,64.369-611.984,128.408l.007-6.354C195.252,152.172,398.716,98.183,608.771,87.989c29.849-1.519,68.832,5.157,88.53,28.08a46.794,46.794,0,0,1,7.958,12.9,27.935,27.935,0,0,1,1.569,4.255,38.621,38.621,0,0,1,1.139,4.355,52.364,52.364,0,0,1,1.067,10.781,64.808,64.808,0,0,1-1.354,13.008,111.6,111.6,0,0,1-3.223,11.862l-.007.064c-1.64,4.785-3.531,9.434-5.594,13.968-1.583,3.453-3.224,6.784-4.864,10.1l-.064.072a.292.292,0,0,1-.122.244c-.853,1.683-1.7,3.374-2.486,5.014-.186.365-.365.659-.552,1.039l-.423.716c-.974,1.87-1.827,3.689-2.679,5.566-1.7,3.625-3.223,7.256-4.5,10.881a73.9,73.9,0,0,0-2.493,7.45,60.9,60.9,0,0,0-1.7,6.232,73.763,73.763,0,0,0-1.834,8.9v.057c-.487,2.908-.86,5.874-1.046,8.71a96.431,96.431,0,0,0,.079,17.263,25.442,25.442,0,0,0,.3,2.851,82.346,82.346,0,0,0,1.741,10.107c.122.544.236,1.089.351,1.64.251.974.487,1.941.788,2.844a23.834,23.834,0,0,0,.91,3.152c.473,1.576,1.017,3.159,1.562,4.67a.765.765,0,0,0,.122.351l-.007.072.064-.007c.3.845.6,1.7.967,2.493.358,1.024.781,2.113,1.261,3.145a.063.063,0,0,0,.064.065c.358.9.781,1.82,1.2,2.722.3.666.6,1.339.96,1.991a3.85,3.85,0,0,0,.3.688c.007.05.064.05.064.107a114.08,114.08,0,0,0,9.119,15.15c17.629,25.114,46.346,47.134,81.489,63.373a1.877,1.877,0,0,1,.544.236c1.941.86,3.868,1.769,5.874,2.557a315.178,315.178,0,0,0,69.942,20.781c196.352,34.09,394.135-24.684,585.444-81.475l1.2-.365C1572.871,287.858,1742.948,245.552,1916.413,248.969Z" transform="translate(2.919 -87.784)"/></g><g transform="translate(0.544 75.436)"><path class="b" d="M1916.407,243.58v6c-134.662-2.507-282.926,20.945-471.14,73.746l-8.044,2.228c-188.765,52.986-383.878,107.771-578.4,75.565a331.145,331.145,0,0,1-74.311-21.21c-.057-.064-.179-.064-.236-.122-37.815-15.931-68.645-38.209-88.151-64.168-2.421-3.209-4.656-6.547-6.762-9.943-.666-1.024-1.275-2.063-1.87-3.145-.244-.365-.43-.723-.666-1.153-.423-.731-.845-1.519-1.268-2.307a102.626,102.626,0,0,1-4.828-10.236,1.909,1.909,0,0,1-.172-.544,21.8,21.8,0,0,1-.91-2.128c-.358-.967-.716-1.941-1.024-2.9-.3-.673-.544-1.4-.781-2.07-.731-2.242-1.325-4.427-1.927-6.647,0-.136-.065-.193-.065-.315-.236-1.031-.473-2.049-.716-3.087-.236-1.153-.48-2.235-.659-3.388a102.763,102.763,0,0,1-1.5-11.275,93.628,93.628,0,0,1-.158-10.043.832.832,0,0,1,.057-.365,45.87,45.87,0,0,1,.315-5.688,98.872,98.872,0,0,1,1.655-11.741,70.932,70.932,0,0,1,1.719-7.507c.666-2.715,1.519-5.444,2.436-8.231.609-1.877,1.275-3.682,2.063-5.559.86-2.364,1.827-4.663,2.858-7.02.122-.308.244-.552.365-.86,1.461-3.13,2.794-6.16,4.011-9.126,1.289-2.851,2.436-5.688,3.474-8.41.788-2,1.454-3.94,2.063-5.924a.292.292,0,0,0,.122-.244l.064-.072-.064-.057a85.159,85.159,0,0,0,3.66-14.7c.064-.244.064-.544.122-.788a51.55,51.55,0,0,0,.623-9.563.193.193,0,0,1,.072-.122.316.316,0,0,0-.072-.129,38.953,38.953,0,0,0-1.49-10.408,14.5,14.5,0,0,0-.845-2.851,38.64,38.64,0,0,0-3.016-6.662,39.181,39.181,0,0,0-5.487-7.643c-18.553-20.623-55.537-26.554-84.053-25.215C395,107.078,193.291,158.467-2.924,218.4l.014-6.368c196.036-59.748,397.56-111.016,606.1-120.55,29.849-1.4,68.889,5.036,88.824,27.235a44.745,44.745,0,0,1,4.47,5.766,35.726,35.726,0,0,1,3.438,6.11,7.487,7.487,0,0,1,.666,1.4,28.473,28.473,0,0,1,1.562,4.305,20.92,20.92,0,0,1,1.139,4.312,46.491,46.491,0,0,1,1.2,10.945l-.007.064a63.828,63.828,0,0,1-.745,9.434,97.332,97.332,0,0,1-3.66,15.322,148.341,148.341,0,0,1-5.358,14.455c-1.64,3.94-3.345,7.693-4.921,11.139-.243.6-.552,1.146-.731,1.755-.552,1.082-.974,2.163-1.4,3.195-1.218,3.03-2.314,5.988-3.231,8.9a46.318,46.318,0,0,0-1.4,4.6,58.146,58.146,0,0,0-1.7,7.013,96.051,96.051,0,0,0-1.776,10.057l.007.05a92.378,92.378,0,0,0-.523,16.905v.179a93.357,93.357,0,0,0,1.311,11.554c.065.244.065.48.122.731.172.845.294,1.7.544,2.543.236,1.211.53,2.421.838,3.639a.766.766,0,0,0,.122.351l-.007.072.007.057c.473,1.812.953,3.632,1.562,5.394v.05c.3.981.659,1.941,1.024,2.915.3.974.716,1.991,1.082,2.966.3.788.666,1.64,1.024,2.421a.454.454,0,0,0,.122.251v.065c.236.6.48,1.146.781,1.755.967,2.3,2.113,4.549,3.324,6.841,1.562,2.9,3.252,5.759,5.122,8.61a.224.224,0,0,0,.064.122c16.06,24.5,43.144,46.267,76.833,62.807,1.261.6,2.479,1.218,3.753,1.762A315.4,315.4,0,0,0,859.8,395.176c193.193,31.919,387.71-22.622,575.745-75.443l8.094-2.278C1632.364,264.533,1781.158,241.087,1916.407,243.58Z" transform="translate(2.924 -91.302)"/></g><g transform="translate(0.509 100.57)"><path class="b" d="M1916.41,238.186l-.015,6.046c-133.738-1.948-281.021,20.293-468.017,70.006l-9.821,2.593c-187.046,49.827-380.518,101.3-573.668,71.023-37.65-5.945-72.377-17.328-101.532-32.707-.967-.552-1.877-1.032-2.844-1.576-28.123-15.308-50.845-34.362-65.579-55.766-.065-.057-.065-.129-.122-.251-1.877-2.722-3.625-5.5-5.258-8.3-.172-.351-.415-.724-.6-1.089-.666-1.153-1.325-2.357-1.87-3.51a101.6,101.6,0,0,1-6.024-13.882c-.064-.115-.064-.172-.129-.236,0-.064,0-.064-.05-.129l-.007-.064c-.115-.423-.236-.774-.358-1.2-.179-.616-.423-1.268-.595-1.877,0-.065-.064-.122,0-.179h-.064c-.308-.91-.544-1.827-.788-2.672a.345.345,0,0,0-.057-.229c-.423-1.526-.838-3.1-1.139-4.62a31.963,31.963,0,0,1-.724-3.56,30.694,30.694,0,0,1-.537-3.281,19,19,0,0,1-.423-3.145,79.535,79.535,0,0,1-.645-10.05c-.057-2.12-.05-4.176.079-6.239,0-.416.057-.845.057-1.275.064-1.268.193-2.478.315-3.753.057-.652.122-1.4.236-2.056a114.215,114.215,0,0,1,2.328-12.894,83.43,83.43,0,0,1,2.314-8.159c.616-2.128,1.347-4.241,2.192-6.354.186-.48.372-1.039.552-1.526.365-.845.666-1.676.974-2.593,1.16-2.908,2.249-5.874,3.281-8.947.43-1.218.852-2.428,1.225-3.632.243-.738.487-1.526.731-2.314a104.992,104.992,0,0,0,3.481-15.6c.179-1.332.365-2.665.494-3.983a42.214,42.214,0,0,0,.186-6.067l.064-.072-.064-.057a42.121,42.121,0,0,0-1.425-10.774,18.775,18.775,0,0,0-.852-2.478,32.776,32.776,0,0,0-3.138-6.848,19.222,19.222,0,0,0-1.748-2.858,38.4,38.4,0,0,0-4.047-5.086c-.115-.129-.229-.308-.358-.43-18.975-19.95-56.081-25.659-84.533-24.5-206.9,8.8-406.6,57.413-600.816,113.358l.014-6.361C191.051,152.271,390.691,103.84,597.594,94.972c29.427-1.275,67.743,4.8,88.287,25.6a8.215,8.215,0,0,1,.9.845c1.218,1.268,2.307,2.55,3.4,3.89.595.838,1.2,1.691,1.741,2.55a40.062,40.062,0,0,1,3.567,6.168,9.168,9.168,0,0,1,.6,1.218,32.51,32.51,0,0,1,1.562,4.062,39.132,39.132,0,0,1,1.268,4.656,48.2,48.2,0,0,1,1.189,10.788,50.6,50.6,0,0,1-.251,6,107.286,107.286,0,0,1-3.918,19.663c-1.461,5.2-3.223,10.1-5.05,14.943-.552,1.375-1.039,2.729-1.583,4.1-1.34,3.4-2.493,6.784-3.474,10.114-.3,1.146-.6,2.292-.91,3.381a107.543,107.543,0,0,0-2.751,14.706,93.259,93.259,0,0,0-.638,10.659,4.833,4.833,0,0,0,.072.91,79.711,79.711,0,0,0,.458,8.6c.072.537.122,1.089.186,1.691l.179,1.447c.179,1.153.351,2.249.6,3.4a23.539,23.539,0,0,0,.537,2.966v.05c.48,2.135.96,4.248,1.619,6.3a3.62,3.62,0,0,0,.365,1.153.2.2,0,0,0,.057.172,1.6,1.6,0,0,0,.244.8c.236.91.48,1.762.781,2.615.122.3.179.6.3.838.544,1.454,1.082,2.908,1.69,4.37a110.417,110.417,0,0,0,6.146,12.607,25.063,25.063,0,0,0,1.626,2.6c16.784,27.521,48.345,51.855,87.907,69.311.057.057.179.057.236.122a330.669,330.669,0,0,0,81.267,23.581c191.939,30.157,384.745-21.246,571.2-70.844l9.878-2.657C1634.357,258.473,1782.128,236.231,1916.41,238.186Z" transform="translate(2.929 -94.81)"/></g><g transform="translate(0.473 125.719)"><path class="b" d="M1916.412,232.938l-.029,6.067c-173.372-1.49-345.7,36.16-464.844,66.145l-11.454,2.88c-185.464,46.69-377.3,94.941-569.134,66.554-46.84-7.056-89.433-22.27-122.57-42.979-23.889-14.821-42.872-32.478-54.942-51.926a.541.541,0,0,1-.122-.251,93.161,93.161,0,0,1-5.43-9.871,70.285,70.285,0,0,1-3.195-7.213,84.942,84.942,0,0,1-3.732-11.261,6.646,6.646,0,0,1-.358-1.468,15.282,15.282,0,0,1-.48-1.877v-.115c-.308-1.282-.6-2.543-.838-3.818l-.007-.057-.179-.974a.345.345,0,0,0-.057-.229c-.122-.86-.236-1.7-.358-2.55-.122-.967-.236-1.877-.358-2.787v-.129c-.115-1.024-.179-2-.229-2.966a24.4,24.4,0,0,1-.179-3.023v-.057a55.42,55.42,0,0,1-.05-6.361c.007-2.056.122-4.054.308-6.117a1.335,1.335,0,0,1,.064-.43,1.96,1.96,0,0,1,.065-.6c.186-2.049.43-4.112.8-6.16v-.179a99.878,99.878,0,0,1,2.321-10.845c.494-1.769.974-3.445,1.526-5.2.487-1.64,1.031-3.259,1.526-5.014.487-1.648.974-3.281,1.461-5.036a124.657,124.657,0,0,0,3.36-17.607,70.35,70.35,0,0,0,.559-7.263l.007-2.07a44.006,44.006,0,0,0-1.5-11.074,11.161,11.161,0,0,0-.6-2,31.887,31.887,0,0,0-3.195-7.271,10.894,10.894,0,0,0-1.2-2,31.9,31.9,0,0,0-4.169-5.516,15.348,15.348,0,0,0-1.39-1.461,4.006,4.006,0,0,0-.48-.544,41.85,41.85,0,0,0-4.233-3.711C652.9,108.254,618.828,103.4,592.3,104.508c-205.327,8.209-403.09,53.91-595.236,105.858l.007-6.361c191.968-51.819,389.615-97.341,594.993-105.55,26.948-1.039,61.747,3.811,83.459,20.379a42.18,42.18,0,0,1,4.835,4c.423.365.788.788,1.2,1.153.129.115.3.3.43.43a55.049,55.049,0,0,1,4.348,5.029c.473.609.967,1.268,1.447,1.948a48.9,48.9,0,0,1,3.625,6.354,7.378,7.378,0,0,1,.423.91,23.757,23.757,0,0,1,1.5,3.882,36.153,36.153,0,0,1,1.44,5.021,52.05,52.05,0,0,1,1.189,11.21c0,.6-.057,1.082-.057,1.691a116.186,116.186,0,0,1-3.925,25.308c-1.039,3.925-2.135,7.679-3.231,11.182-.423,1.282-.788,2.493-1.16,3.753v.057a96.671,96.671,0,0,0-3.675,23.445v.043a50.89,50.89,0,0,0,.043,5.337,17.85,17.85,0,0,0,.122,3.087,27.468,27.468,0,0,0,.236,3.2.063.063,0,0,0,.064.064,20.527,20.527,0,0,0,.236,2.722c.172,1.146.358,2.307.595,3.388a2.508,2.508,0,0,0,.179.91,26.222,26.222,0,0,0,.724,3.761,9.927,9.927,0,0,0,.595,2.249c-.057,0-.05.05-.05.05s0,.057.05.064v.057a7.726,7.726,0,0,0,.308,1.089l-.007.122c.666,2.493,1.447,4.9,2.357,7.328a93.069,93.069,0,0,0,6.812,14.663c.716,1.39,1.562,2.729,2.414,4.119,13.152,21.1,34.677,40.028,61.948,55.465.967.544,1.877,1.024,2.844,1.576,30.487,16.647,67.814,29.011,108.437,35.078,190.664,28.216,381.829-19.921,566.762-66.439l11.44-2.872C1569.539,269.219,1742.352,231.412,1916.412,232.938Z" transform="translate(2.934 -98.321)"/></g><g transform="translate(0.437 150.883)"><path class="b" d="M1916.4,227.576l-.014,6.06c-131.195-.917-279.8,19.269-461.692,62.392l-13.044,3.073c-183.944,43.6-374.136,88.709-564.62,62.2-52.779-7.486-100.579-25.071-135.772-48.875a11.308,11.308,0,0,1-1.447-1.031c-17.779-12.206-32.285-26.038-42.485-41.017a109.219,109.219,0,0,1-6.884-11.511,95.939,95.939,0,0,1-4.276-9.212,92.863,92.863,0,0,1-5.236-18.359c-.057-.48-.186-.96-.236-1.383a.4.4,0,0,0-.064-.236c-.179-1.225-.294-2.364-.473-3.589v-.115c-.057-.673-.122-1.332-.172-2,0-.065-.064-.122,0-.179-.129-.852-.186-1.7-.244-2.55-.057-.967-.122-1.934-.115-2.9-.065-.967-.065-1.941-.057-2.915v-.057a20.157,20.157,0,0,1,.129-2.779c0-.057-.064-.057-.064-.057h.064v-.064a63.8,63.8,0,0,1,.688-8.961,1.363,1.363,0,0,1,.057-.537,4.892,4.892,0,0,1,.122-.974.668.668,0,0,1,.065-.358,53.532,53.532,0,0,1,1.039-5.695.917.917,0,0,1,.115-.537c.129-.8.308-1.64.494-2.428.186-.673.3-1.332.43-1.934a117.608,117.608,0,0,0,3-19.62v-.05c.122-1.7.186-3.4.186-5.086a20.805,20.805,0,0,0,.072-2.851c0-1.024,0-2.056-.057-3.152a42.561,42.561,0,0,0-1.254-8.9c-.065-.179-.065-.365-.122-.48a37.827,37.827,0,0,0-3.374-8.481,6.391,6.391,0,0,0-.358-.673,38.854,38.854,0,0,0-4.348-6.246,2.108,2.108,0,0,0-.3-.423,44.557,44.557,0,0,0-3.99-4.183c-.3-.3-.609-.552-.967-.852a46.281,46.281,0,0,0-5.208-4c-20.788-14.642-53.717-18.99-79.276-18.016-203.744,7.486-399.508,50.229-589.649,98.3l.014-6.239c189.962-48.015,385.661-90.579,589.405-98.122,32.7-1.2,61.926,5.322,81.038,17.715,1.812,1.146,3.567,2.428,5.2,3.7a3.592,3.592,0,0,1,.487.365c1.089.91,2.113,1.762,3.073,2.672a15.75,15.75,0,0,1,1.812,1.877,2.162,2.162,0,0,1,.738.731,45.759,45.759,0,0,1,4.463,5.265c.251.372.487.738.723,1.1a41.918,41.918,0,0,1,3.746,6.6,1.235,1.235,0,0,1,.172.437,30.543,30.543,0,0,1,1.39,3.388,34.674,34.674,0,0,1,1.626,6.239,43.489,43.489,0,0,1,1.01,8.059c.065,1.318.065,2.658.057,4a122.52,122.52,0,0,1-3.259,27.9c-.186.788-.372,1.576-.552,2.357a87.772,87.772,0,0,0-2.393,16.583,4.954,4.954,0,0,0-.064,1.4,7.859,7.859,0,0,0-.064,1.691c-.065.974-.065,1.991-.065,2.966.057,1.031.05,1.991.115,2.966.057.673.057,1.332.115,1.941,0,.179.064.423.064.6.057.852.115,1.7.236,2.55.064.6.115,1.211.236,1.819.122.96.236,1.877.423,2.787.057.415.115.845.179,1.211.122.659.294,1.325.415,1.927.544,2.672,1.261,5.337,2.049,7.937a94.3,94.3,0,0,0,5.423,13.51c.057.122.057.193.122.251a112.339,112.339,0,0,0,7.292,12.428c10.816,15.809,26.59,30.372,46.124,43.008,33.982,21.984,79.354,38.23,129.418,45.35,189.4,26.389,379.05-18.589,562.45-62.084l12.973-3.059C1635.565,246.974,1784.661,226.666,1916.4,227.576Z" transform="translate(2.939 -101.834)"/></g><g transform="translate(0.408 176.018)"><path class="b" d="M1916.4,222.182l-.015,6.06c-130.228-.43-277.869,18.538-458.6,58.7l-14.413,3.188c-182.454,40.644-371.077,82.6-560.344,57.908C813.795,338.764,752.205,312.611,716,277.97l-.064-.05a133.208,133.208,0,0,1-14.8-16.5,105.02,105.02,0,0,1-13.517-23.209,85.635,85.635,0,0,1-6.669-26.475v-.351c-.115-1.046-.186-2.07-.236-3.095a.4.4,0,0,0-.064-.236l.007-1.712c-.057-.652-.057-1.39-.057-2.113.007-.788.064-1.633.072-2.478a18.236,18.236,0,0,1,.057-1.877v-.745c.057-.953.129-1.862.244-2.829.064-.974.193-1.877.315-2.837.057-.86.179-1.7.308-2.55.179-1.332.365-2.6.494-3.875l.057-.064a14.416,14.416,0,0,0,.122-1.511,4.027,4.027,0,0,0,.065-.845,7.62,7.62,0,0,0,.122-1.153c.193-2.3.308-4.6.315-6.905.129-2.357.065-4.728-.043-7.135-.057-2.192-.236-4.42-.473-6.669-.064-.781-.122-1.5-.236-2.292a30.257,30.257,0,0,0-.544-3.4,33.269,33.269,0,0,0-1.8-6.06l-.007-.05c-.294-.917-.666-1.7-1.024-2.557a39.261,39.261,0,0,0-2.407-4.37c-.365-.652-.852-1.325-1.275-1.927a34.981,34.981,0,0,0-2.35-3.03,17.311,17.311,0,0,0-1.755-1.884,16.638,16.638,0,0,0-1.812-1.891c-.731-.716-1.511-1.39-2.3-2.056a41.956,41.956,0,0,0-3.689-2.908c-19.527-14.083-51.246-19.842-81.876-18.8-202.111,6.948-395.991,46.6-584.126,90.873l.007-6.239c187.956-44.2,381.714-83.8,583.89-90.694,30.272-1.031,61.439,4.47,82.363,17.9a38.007,38.007,0,0,1,4.169,2.858A11.43,11.43,0,0,1,669,127.305c1.089.852,2.113,1.7,3.08,2.615a7.687,7.687,0,0,1,1.024.967,41.368,41.368,0,0,1,3.574,3.7,3.163,3.163,0,0,1,.6.666v.057a40.66,40.66,0,0,1,3.675,4.921,4.642,4.642,0,0,1,.487.659,41.725,41.725,0,0,1,3.08,5.953,6.943,6.943,0,0,1,.48,1.2c.3.559.48,1.153.724,1.7v.05a43.635,43.635,0,0,1,1.92,7.636v.057a14.751,14.751,0,0,1,.365,2.242c.415,3.632.709,7.2.766,10.666a115.612,115.612,0,0,1-1.2,21.368.479.479,0,0,1-.065.294c-.115,1.039-.244,2-.3,3.03a26.12,26.12,0,0,0-.315,2.98c-.057.652-.065,1.332-.065,1.934a3.794,3.794,0,0,0-.057.774v.8a19.282,19.282,0,0,0-.065,1.934c0,.716-.007,1.447.05,2.185a.044.044,0,0,0-.05.05s0,.057.05.064v.057c0,.723,0,1.44.064,2.185.057.845.057,1.626.179,2.478v.294c.115,1.7.351,3.46.595,5.157.351,2.414.831,4.85,1.433,7.264a84.291,84.291,0,0,0,4.334,12.9.54.54,0,0,0,.122.251,101.012,101.012,0,0,0,12.493,21.4c8.639,11.461,20.121,22.192,33.846,31.97a11.311,11.311,0,0,0,1.447,1.031c35.8,25.193,86.553,43.818,142.548,51.246,188.185,24.52,376.32-17.335,558.209-57.793l14.427-3.245C1637.617,240.785,1785.7,221.76,1916.4,222.182Z" transform="translate(2.943 -105.343)"/></g><g transform="translate(0.372 201.212)"><path class="b" d="M1916.4,216.787l-.014,6.053c-129.26-.122-275.92,17.708-455.453,54.956l-15.738,3.3c-180.986,37.564-368.011,76.5-556.089,53.631-73.122-9.1-146.023-37.872-183.056-80.572a6.488,6.488,0,0,0-.845-1.024c-15.888-18.567-24.871-39.713-24.219-63.079v-2.063a18.1,18.1,0,0,0,.065-1.862c0-.8,0-1.519-.05-2.314l-.007-.064a27.082,27.082,0,0,0-.115-3.138c.007-.788-.057-1.633-.115-2.421a4.528,4.528,0,0,0-.122-.974c-.05-1.268-.172-2.593-.351-3.94-.186-1.325-.365-2.6-.537-3.99v-.057h-.064c.064-.064.064-.064,0-.129-.416-2.658-.9-5.509-1.562-8.531-.057-.308-.115-.616-.172-.852a37.06,37.06,0,0,0-2.292-6.784,35.626,35.626,0,0,0-2.536-4.678,29.386,29.386,0,0,0-2.285-3.317,22.636,22.636,0,0,0-1.941-2.378c-.415-.48-.845-.96-1.325-1.454-18.374-19.348-56.26-27.285-91.976-26.081C375.063,121.308,183.181,157.87-2.948,198.449l.014-6.246c186.008-40.5,377.768-77.019,578.3-83.237,31.31-.974,67.743,4.663,89.691,21.6a19.562,19.562,0,0,1,2.113,1.7,21.68,21.68,0,0,1,2.787,2.493,32.77,32.77,0,0,1,2.9,2.915l.172.172a22.233,22.233,0,0,1,1.511,1.812c.544.609,1.089,1.354,1.576,2.006.172.251.358.551.537.8.91,1.268,1.755,2.536,2.536,3.882v.064a31.81,31.81,0,0,1,2.464,5.322.736.736,0,0,1,.186.373,21.491,21.491,0,0,1,.967,2.772,32.249,32.249,0,0,1,1.2,4.384v.043c.537,2.722,1.082,5.272,1.433,7.758.129.666.244,1.332.365,2,.122.781.236,1.633.3,2.421.236,1.454.423,2.837.53,4.226.064.917.186,1.762.236,2.622a6.19,6.19,0,0,0,.065,1.024v.781c.057.852.115,1.7.115,2.543.057.6.057,1.275.057,1.877v.731l-.007.122c0,.723,0,1.447-.057,2.185a9.341,9.341,0,0,1,0,1.268v.294c-.072,1.339-.072,2.672-.072,4-.007,1.633.107,3.281.229,4.907a60.015,60.015,0,0,0,.774,6.54,77.858,77.858,0,0,0,2.521,10.96c4.577,14.72,13.388,28.366,25.472,40.68l.064.05c37.342,38.166,105.529,63.9,173.794,72.449,187.046,22.693,373.656-16.067,554.091-53.567l15.752-3.3C1639.675,234.559,1786.722,216.73,1916.4,216.787Z" transform="translate(2.948 -108.86)"/></g><g transform="translate(0.344 226.337)"><path class="b" d="M1916.394,211.523l-.015,5.938c-128.236.229-273.936,16.855-452.358,51.267l-16.905,3.3c-179.51,34.663-365.139,70.443-551.942,49.455-83.058-9.663-169.024-44.512-201.559-96.159a85.871,85.871,0,0,1-12.772-34.183c-.179-1.383-.358-2.765-.48-4.241-.709-8.653-3.173-16.955-6.125-26.16-9.864-31.024-59.433-43.588-104.239-42.22-198.837,5.63-388.828,39.169-572.951,76.059l.007-6.117c184-36.891,373.878-70.314,572.779-75.988,42.922-1.311,96.854,9.742,109.555,44.706l.007.057c.236.552.415,1.1.6,1.64,0,.057.065.115.065.179.172.609.415,1.261.595,1.877.122.43.243.781.358,1.2l.007.064c.05.064.05.064.05.129.064.064.064.122.129.236,1.375,4.484,2.65,8.847,3.6,13.209a87.719,87.719,0,0,1,1.44,8.961c.064.544.115,1.089.179,1.633a65.833,65.833,0,0,0,1.254,8.546c2.579,13.087,8.668,25.265,17.55,36.6a6.489,6.489,0,0,1,.845,1.024c35.694,44.269,113.981,74.082,189.768,82.886,185.9,20.938,371.048-14.8,550.072-49.4l16.962-3.223C1641.727,228.321,1787.806,211.76,1916.394,211.523Z" transform="translate(2.952 -112.368)"/></g><g transform="translate(0.308 251.493)"><path class="b" d="M1916.382,206.1l-.014,6.053c-127.133.544-271.852,15.9-449.185,47.463l-17.865,3.18c-178.128,31.748-362.359,64.577-548.088,45.4-98.6-10.6-206.287-56.274-221.416-123.272-1.44-6.54-4.276-12.657-7.471-19.806l-1.934-4.176c-13.56-30.487-65.486-40.15-106-38.954-197.139,5.064-385.124,35.479-567.364,68.731l.014-6.11c182.061-33.273,369.981-63.66,567.192-68.667,42.263-1.017,96.9,9.319,111.682,42.521l1.92,4.126c1.089,2.364,2.113,4.656,3.023,6.9a74.149,74.149,0,0,1,4.878,14.119,73.617,73.617,0,0,0,7.894,20.064c26.97,47.994,109.239,87.864,208.2,98.473,184.876,19.169,368.7-13.6,546.44-45.293l17.808-3.166C1643.792,222.049,1788.833,206.648,1916.382,206.1Z" transform="translate(2.957 -115.88)"/></g><g transform="translate(0.279 276.645)"><path class="b" d="M1916.392,200.809l-.014,5.938c-126.18.845-269.825,15.036-446.048,43.767l-18.732,3.052c-176.832,28.911-359.659,58.782-544.3,41.3-110.658-10.795-206.53-57.85-227.984-111.832-1.92-4.971-4.821-9.455-8.137-14.663-1.454-2.307-2.966-4.678-4.527-7.278-16.6-27.758-68.409-36.575-107.828-35.565C364.47,129.879,172.366,158.1-2.961,187l.007-6.16c175.213-28.861,367.309-57.005,561.669-61.367,40.924-1.074,95.156,8.546,113.143,38.538,1.512,2.493,3.016,4.857,4.405,7.092,3.381,5.215,6.518,10.186,8.682,15.7,20.673,51.984,114.433,97.449,222.956,108.065,183.794,17.414,366.263-12.435,542.687-41.232l18.718-3.109C1645.915,215.737,1789.9,201.654,1916.392,200.809Z" transform="translate(2.961 -119.391)"/></g><g transform="translate(0.244 301.798)"><path class="b" d="M1916.38,195.393l-.007,6.06c-125.091,1.082-267.8,14.076-442.96,39.957l-19.434,2.88c-175.5,26.053-357.016,53.022-540.616,37.3-106.288-9.412-204.847-51.661-234.417-100.471a88.145,88.145,0,0,0-9.054-11.569c-2.242-2.543-4.592-5.222-6.948-8.245-19.692-25.114-71.446-33.015-109.7-32.3-192.727,3.754-382.939,28.882-556.2,54.347l.007-6.117C170.248,151.711,360.4,126.7,553.13,122.951c39.77-.781,93.523,7.736,114.54,34.6,2.292,2.915,4.592,5.523,6.762,8.008a94.414,94.414,0,0,1,9.728,12.428c28.6,47.277,125.221,88.323,229.761,97.613,182.82,15.6,363.957-11.3,539.162-37.242l19.434-2.944C1648.031,209.476,1791,196.489,1916.38,195.393Z" transform="translate(2.966 -122.902)"/></g><g transform="translate(0.208 326.979)"><path class="b" d="M1916.389,189.959l-.014,6.1c-123.931,1.4-265.684,13.059-439.8,36.232l-19.742,2.629c-174.368,23.28-354.688,47.277-537.393,33.366-101.883-8.059-203.106-45.558-240.8-89.089a90.871,90.871,0,0,0-10.15-9.534c-2.966-2.479-6.046-5.093-9.255-8.245-18.732-18.445-62.42-29.849-111.589-28.9-191.022,3.145-379.358,25.071-550.616,47.206l.007-6.11c171.266-22.134,359.537-44,550.566-47.156,38.381-.659,91.826,6.9,115.88,30.666,3.023,2.98,6.046,5.466,8.947,7.958a95.666,95.666,0,0,1,10.824,10.129c36.726,42.449,136.252,79.1,236.688,87.091,182.018,13.847,362.008-10.158,536.053-33.381l19.742-2.629C1650.089,203.075,1792.15,191.3,1916.389,189.959Z" transform="translate(2.971 -126.418)"/></g><g transform="translate(0.165 352.098)"><path class="b" d="M1916.4,184.622l-.014,6.117c-122.857,1.526-263.629,12.1-436.721,32.485l-19.67,2.314c-173.322,20.508-352.567,41.661-534.47,29.512C826.59,248.138,725,216.1,678.4,177.2a105.959,105.959,0,0,0-11.311-7.829c-3.689-2.364-7.493-4.807-11.49-7.837-21.282-16.2-65.758-26.268-113.466-25.523C352.8,138.627,166.29,157.344-2.977,176.219l.014-6.117c169.2-18.746,355.655-37.535,544.979-40.136,38.989-.652,90.264,6.16,117.291,26.8,3.746,2.851,7.435,5.208,11.06,7.464a118.9,118.9,0,0,1,11.912,8.324c45.7,38.166,145.908,69.591,243.658,76.439,181.373,12.149,360.261-9.012,533.353-29.441l19.67-2.328C1652.332,196.785,1793.3,186.14,1916.4,184.622Z" transform="translate(2.977 -129.924)"/></g><g transform="translate(0.136 377.225)"><path class="b" d="M1916.393,179.241l-.014,6.11c-121.639,1.755-261.444,11.117-433.548,28.782l-19.147,1.97c-138.9,14.334-281.651,29-426.65,28.725q-52.575-.086-105.45-3.037c-95.658-5.752-197.5-32.578-253.442-66.647a135.024,135.024,0,0,0-12.529-6.454c-4.413-2.12-8.947-4.248-13.66-7.034-24.2-14.219-68.437-22.779-115.414-22.149-187.634,2.07-372.259,17.715-539.521,33.316l.014-6.117c167.19-15.551,351.822-31.182,539.392-33.252,48.137-.516,93.53,8.231,118.63,22.994,4.47,2.615,8.882,4.742,13.18,6.748a138.221,138.221,0,0,1,13.066,6.8C727.2,197.93,822.5,229.111,931.95,235.745c180.829,10.387,358.928-7.93,531.139-25.637l19.09-1.97C1654.5,190.43,1794.446,181.06,1916.393,179.241Z" transform="translate(2.981 -133.432)"/></g><g transform="translate(0.1 402.41)"><path class="b" d="M1916.4,173.969l-.029,6.06c-120.221,2-261.867,10.222-430.439,24.971l-17.571,1.547c-139.1,12.2-282,24.713-427.43,24.441q-51.392-.108-103.294-2.493c-92.062-4.663-194.045-26.468-259.746-55.529-4.405-1.948-8.954-3.539-13.732-5.229-5.072-1.841-10.4-3.66-15.781-6.082-26.862-11.927-71.776-19.162-117.42-18.646-185.879,1.476-368.749,14.083-533.94,26.49l.014-6.117c165.127-12.407,347.933-24.964,533.869-26.418,46.5-.4,92.32,6.9,119.905,19.176,5.208,2.307,10.344,4.133,15.365,5.838,4.907,1.769,9.5,3.41,14.162,5.423,49.412,21.891,146.545,49.434,257.626,55.042,180.664,8.632,358.2-6.9,529.871-21.948l17.572-1.547C1654.207,184.191,1795.96,175.982,1916.4,173.969Z" transform="translate(2.986 -136.948)"/></g><g transform="translate(0.072 427.533)"><path class="b" d="M1916.392,168.528l-.014,6.046c-118.852,2.2-259.474,9.262-427.3,21.354l-14.778,1.067c-139.891,10.086-283.636,20.472-430.2,20.186q-49.964-.086-100.378-1.934c-105.536-4.319-206.659-25.831-266.136-44.462-4.907-1.59-9.749-2.808-14.95-4.09-5.809-1.533-11.805-3.044-17.915-5.064-29.885-9.735-74.619-15.58-119.361-15.114-184.181.86-365.346,10.516-528.346,19.763l.007-6.046c162.942-9.327,344.115-18.9,528.289-19.763,45.594-.344,90.808,5.494,121.238,15.415,6,1.956,11.862,3.481,17.614,4.943,5.021,1.218,10.172,2.557,15.243,4.148,59.125,18.574,159.647,39.9,264.553,44.219,180.972,6.941,358.369-5.874,529.936-18.252l14.692-1.075C1656.624,177.783,1797.346,170.72,1916.392,168.528Z" transform="translate(2.99 -140.455)"/></g><g transform="translate(0.029 452.661)"><path class="b" d="M1916.4,163.247l-.014,6.053c-117.52,2.2-254.367,7.88-424.214,17.55l-8.725.458c-142.119,8.094-288.227,16.354-437.394,16.067q-47.954-.086-96.267-1.39c-116.969-3.61-220.95-22.514-272.511-33.5-5.387-1.11-10.709-2.027-16.16-3.009-6.476-1.1-13.252-2.321-20.086-3.854-32.987-7.45-77.241-11.834-121.252-11.612C337.286,150.339,157.46,157.015-3,163.132l.014-6.06c160.456-6.175,340.289-12.786,522.766-13.109,44.5-.043,89.175,4.155,122.584,11.733,6.712,1.526,13.374,2.679,19.785,3.847,5.508.924,10.953,1.9,16.347,3.066,51.382,10.874,154.991,29.72,271.479,33.331,182.412,5.244,360.683-4.9,533.116-14.62l8.732-.537C1661.783,171.126,1798.751,165.446,1916.4,163.247Z" transform="translate(2.996 -143.963)"/></g><g transform="translate(0 477.83)"><path class="b" d="M1916.381,157.816l-.014,4.176c0,.666,0,1.268-.057,1.884-114.97,2.321-250.907,6.848-420.99,13.854-139.561,5.731-294.81,12.156-451.986,11.855q-43.689-.075-87.485-.945c-83.423-1.669-177.261-9.233-279.008-22.45-5.745-.738-11.5-1.4-17.314-2.027-7.328-.8-14.713-1.6-22.213-2.658-36.138-5.079-79.784-7.715-123.129-7.965-175.041-.215-348.627,3.274-501.749,6.311-5.143.115-10.294.222-15.379.272C-3,159.514-3,158.977-3,158.36l.007-4.291c5.086-.05,10.172-.165,15.322-.287,153.121-3.03,326.765-6.518,501.863-6.3,43.6.007,87.542,2.887,123.981,8.037,7.443,1.039,14.706,1.841,21.97,2.65,5.874.609,11.69,1.232,17.5,2.02,101.5,13.152,195.148,20.723,278.335,22.385,186.359,3.617,373.763-4.083,539.047-10.9C1665.288,164.671,1801.34,160.137,1916.381,157.816Z" transform="translate(3 -147.477)"/></g><g transform="translate(2.579 502.639)"><path class="b" d="M1912.315,152.7a28.088,28.088,0,0,1-2.307,5.931c0,.064-.071.122-.071.172-80.937,1.733-168.429,3.933-259.8,6.239q-75.106,1.945-153.967,3.882c-147.491,3.961-304.681,7.478-464.271,7.178q-36.049-.086-72.234-.437c-104.612-1.053-207.469-6.691-285.441-11.5-6.11-.373-12.17-.688-18.281-1-8.18-.437-16.346-.888-24.584-1.454-39.469-2.736-82.692-4.2-124.955-4.405-131.99-.552-259.725-.251-383.3,0q-62.664.172-123.029.193a23.517,23.517,0,0,1-1.082-2.12c-.6-1.275-1.146-2.536-1.626-3.868q61.568-.064,125.686-.258c123.573-.244,251.379-.551,383.369,0,42.385.215,85.73,1.683,125.378,4.42,8.18.559,16.347.989,24.462,1.433,6.11.322,12.228.638,18.345,1,77.843,4.806,180.642,10.444,285.133,11.5,184.174,1.733,366.6-2.213,536.261-6.748q78.738-1.923,153.966-3.825C1742.3,156.671,1830.64,154.422,1912.315,152.7Z" transform="translate(2.64 -150.94)"/></g><g transform="translate(16.705 521.027)"><path class="b" d="M1890.62,153.507a35.564,35.564,0,0,1-6.182,5.5,6.589,6.589,0,0,1-.91.595c-134.6,2.894-288.994,5.215-456.7,6.583L201.779,163.872c-65.873-.781-129.683-1.691-191.079-2.786-.838-.3-1.691-.6-2.536-.967-1.332-.6-2.665-1.218-3.925-1.941a55.046,55.046,0,0,1-4.907-3.216c235.148,4.019,511.956,6.526,814.975,7.1C1238.6,162.869,1611.454,159.632,1890.62,153.507Z" transform="translate(0.668 -153.507)"/></g></g></svg>