<svg xmlns="http://www.w3.org/2000/svg" xmlns:xlink="http://www.w3.org/1999/xlink" width="90" height="90" viewBox="0 0 90 90"><defs><style>.a,.c{fill:#fff;}.a{stroke:#707070;}.b{clip-path:url(#a);}.d{fill:#b01f2e;}.e{fill:#f39222;}</style><clipPath id="a"><rect class="a" width="90" height="90" transform="translate(347 2212)"/></clipPath></defs><g class="b" transform="translate(-347 -2212)"><g transform="translate(354.714 2228.714)"><g transform="translate(0 0)"><path class="c" d="M376.35,466.6a4.11,4.11,0,1,1,0,8.22,4.041,4.041,0,0,1-4.151-3.978A4.267,4.267,0,0,1,376.35,466.6Z" transform="translate(-310.203 -456.656)"/><path class="c" d="M336.462,461.6a3.315,3.315,0,1,1-3.348,3.314A3.3,3.3,0,0,1,336.462,461.6Z" transform="translate(-322.938 -458.286)"/><path class="d" d="M381.407,483.331a1.672,1.672,0,0,1,.534,1.193,1.289,1.289,0,0,1-.534,1.193,1.708,1.708,0,0,1-1.206.531,1.763,1.763,0,0,1-1.74-1.724,1.432,1.432,0,0,1,.534-1.193,1.636,1.636,0,0,1,2.412,0Z" transform="translate(-308.162 -451.377)"/><path class="d" d="M377.569,460.83a1.671,1.671,0,0,1,.534,1.193,1.29,1.29,0,0,1-.534,1.194,2,2,0,0,1-1.205.53,1.763,1.763,0,0,1-1.741-1.724,1.434,1.434,0,0,1,.534-1.193,1.636,1.636,0,0,1,2.412,0Z" transform="translate(-309.413 -458.709)"/><path class="d" d="M343.534,459.63a1.674,1.674,0,0,1,.536,1.193,1.287,1.287,0,0,1-.536,1.193,2,2,0,0,1-1.205.53,1.764,1.764,0,0,1-1.741-1.723,1.433,1.433,0,0,1,.536-1.193,2,2,0,0,1,1.2-.531A1.705,1.705,0,0,1,343.534,459.63Z" transform="translate(-320.503 -459.1)"/><path class="d" d="M328.385,465.83a1.673,1.673,0,0,1,.536,1.194,1.433,1.433,0,0,1-.536,1.193,2,2,0,0,1-1.205.53,1.764,1.764,0,0,1-1.741-1.723,1.434,1.434,0,0,1,.536-1.194,1.635,1.635,0,0,1,2.41,0Z" transform="translate(-325.439 -457.08)"/><path class="d" d="M336.889,470.376a5.038,5.038,0,1,1,5.089-5.038A5.149,5.149,0,0,1,336.889,470.376Zm0-6.629a1.724,1.724,0,1,0,1.741,1.723A1.854,1.854,0,0,0,336.889,463.747Z" transform="translate(-323.366 -458.709)"/><path class="d" d="M376.778,476.967a5.834,5.834,0,1,1,5.891-5.834A5.915,5.915,0,0,1,376.778,476.967Zm0-8.22a2.53,2.53,0,0,0-2.545,2.519,2.544,2.544,0,1,0,2.545-2.519Z" transform="translate(-310.63 -457.08)"/></g><g transform="translate(14.823 10.32)"><g transform="translate(0 0)"><rect class="c" width="43.9" height="32.254" transform="translate(1.302 13.795)"/><rect class="c" width="5.012" height="9.924" transform="translate(27.663 31.162)"/><rect class="c" width="5.012" height="9.924" transform="translate(13.831 31.162)"/><path class="c" d="M103.821,102.3l5.012,6.153H98.81Z" transform="translate(-73.653 -77.291)"/><path class="c" d="M89.884,102.3l5.012,6.153H84.873Z" transform="translate(-73.547 -77.291)"/><path class="c" d="M99.463,78.5l1.8,12.405h-8.82l1.8-12.405Z" transform="translate(-73.605 -77.111)"/><rect class="c" width="8.82" height="7.443" transform="translate(18.843 13.795)"/><path class="c" d="M94.118,78.5l-1.8,12.405H74.773L81.088,78.5Z" transform="translate(-73.471 -77.111)"/><path class="c" d="M112.547,78.5l6.314,12.405h-17.54L99.517,78.5Z" transform="translate(-73.658 -77.111)"/><path class="e" d="M118.663,124.535h-43.9a1.32,1.32,0,0,1-1.3-1.29V90.99a1.3,1.3,0,0,1,2.605,0v31.063h41.3V90.99a1.3,1.3,0,0,1,2.605,0v32.254A1.48,1.48,0,0,1,118.663,124.535Z" transform="translate(-73.461 -77.195)"/><path class="e" d="M118.851,92.185H101.31a1.29,1.29,0,1,1,0-2.58h15.537l-5.012-9.924H99.507a1.29,1.29,0,1,1,0-2.58h13.03a1.233,1.233,0,0,1,1.1.695L119.954,90.2a1.05,1.05,0,0,1-.1,1.191A1.152,1.152,0,0,1,118.851,92.185Z" transform="translate(-73.648 -77.1)"/><path class="e" d="M92.3,92.187H74.763a1.387,1.387,0,0,1-1.1-.6,1.645,1.645,0,0,1-.1-1.191l6.314-12.405a1.233,1.233,0,0,1,1.1-.695h13.03a1.29,1.29,0,1,1,0,2.58H81.78L76.768,89.8H92.3a1.32,1.32,0,0,1,1.3,1.29A1.307,1.307,0,0,1,92.3,92.187Z" transform="translate(-73.461 -77.101)"/><path class="e" d="M101.257,99.724h-8.82a1.32,1.32,0,0,1-1.3-1.29V90.99a1.3,1.3,0,0,1,2.606,0v6.252h6.315V90.99a1.3,1.3,0,0,1,2.606,0v7.443A1.69,1.69,0,0,1,101.257,99.724Z" transform="translate(-73.595 -77.195)"/><path class="e" d="M101.258,92.187h-8.82a1.276,1.276,0,0,1-.9-.4,1.665,1.665,0,0,1-.3-.992l1.8-12.405a1.277,1.277,0,0,1,1.2-1.092h5.212a1.2,1.2,0,0,1,1.2,1.092l1.8,12.207v.3A1.3,1.3,0,0,1,101.258,92.187Zm-7.417-2.481h5.914l-1.4-9.924H95.244Z" transform="translate(-73.595 -77.101)"/><path class="e" d="M92.4,119.7H87.388a1.321,1.321,0,0,1-1.3-1.29V108.49a1.3,1.3,0,0,1,2.607,0v8.733h2.5V108.49a1.3,1.3,0,0,1,2.606,0v9.924A1.491,1.491,0,0,1,92.4,119.7Z" transform="translate(-73.557 -77.328)"/><path class="e" d="M94.886,109.733H84.864a1.188,1.188,0,0,1-.9-1.985l5.011-6.252a1.239,1.239,0,0,1,1-.5,1.4,1.4,0,0,1,1,.5l5.012,6.153a1.12,1.12,0,0,1,.3.794A1.491,1.491,0,0,1,94.886,109.733Zm-7.416-2.481h4.81l-2.406-2.977Z" transform="translate(-73.538 -77.281)"/><path class="e" d="M106.336,119.7h-5.012a1.32,1.32,0,0,1-1.3-1.29V108.49a1.3,1.3,0,0,1,2.606,0v8.733h2.506V108.49a1.3,1.3,0,0,1,2.606,0v9.924A1.688,1.688,0,0,1,106.336,119.7Z" transform="translate(-73.662 -77.328)"/><path class="e" d="M108.823,109.733H98.8a1.188,1.188,0,0,1-.9-1.985l5.012-6.252a1.236,1.236,0,0,1,1-.5,1.4,1.4,0,0,1,1,.5l5.012,6.153a1.12,1.12,0,0,1,.3.794A1.688,1.688,0,0,1,108.823,109.733Zm-7.416-2.481h4.81l-2.406-2.977Z" transform="translate(-73.644 -77.281)"/><path class="e" d="M115.132,95.98h-3.809a1.29,1.29,0,1,1,0-2.58h3.809a1.29,1.29,0,1,1,0,2.58Z" transform="translate(-73.738 -77.223)"/><path class="e" d="M115.132,99.78h-3.809a1.29,1.29,0,1,1,0-2.58h3.809a1.29,1.29,0,1,1,0,2.58Z" transform="translate(-73.738 -77.252)"/><path class="e" d="M82.309,117.28H78.5a1.29,1.29,0,1,1,0-2.58h3.809a1.29,1.29,0,1,1,0,2.58Z" transform="translate(-73.489 -77.384)"/><path class="e" d="M82.309,120.98H78.5a1.29,1.29,0,1,1,0-2.58h3.809a1.29,1.29,0,1,1,0,2.58Z" transform="translate(-73.489 -77.412)"/></g></g></g></g></svg>