<svg xmlns="http://www.w3.org/2000/svg" xmlns:xlink="http://www.w3.org/1999/xlink" width="90" height="90" viewBox="0 0 90 90"><defs><style>.a,.c{fill:#fff;}.a{stroke:#707070;}.b{clip-path:url(#a);}.d{fill:#b3b3b3;}</style><clipPath id="a"><rect class="a" width="90" height="90" transform="translate(1269 2212)"/></clipPath></defs><g class="b" transform="translate(-1269 -2212)"><g transform="translate(1278 2228.715)"><g transform="translate(0 0)"><path class="c" d="M508.677,228.611a2.654,2.654,0,1,1-2.655,2.655A2.654,2.654,0,0,1,508.677,228.611Z" transform="translate(-444.983 -203.935)"/><path class="c" d="M512.628,243.751v10.615H454.244V243.751h58.385Z" transform="translate(-447.661 -203.152)"/><path class="d" d="M507.3,221.041a1.274,1.274,0,1,1-1.275,1.274A1.273,1.273,0,0,1,507.3,221.041Z" transform="translate(-439.57 -209.192)"/><path class="d" d="M507.3,221.041a1.274,1.274,0,1,1-1.275,1.274A1.273,1.273,0,0,1,507.3,221.041Z" transform="translate(-462.87 -221.041)"/><path class="c" d="M510.847,244.08H455.858c0-3.714,2.548-6.688,6.263-6.688h42.144a6.667,6.667,0,0,1,4.671,1.911A6.928,6.928,0,0,1,510.847,244.08Z" transform="translate(-447.577 -203.481)"/><path class="c" d="M503.85,238.237h.425V226.88a5.89,5.89,0,0,0-5.838-5.839H467.652a5.891,5.891,0,0,0-5.839,5.839v11.465H503.85Z" transform="translate(-447.269 -204.327)"/><path class="d" d="M498.515,226.088a1.274,1.274,0,1,1-1.274,1.274A1.273,1.273,0,0,1,498.515,226.088Z" transform="translate(-445.437 -204.066)"/><path class="c" d="M493.865,232.346A2.628,2.628,0,0,1,496.52,235a3.052,3.052,0,0,1-.743,1.911,2.563,2.563,0,0,1-1.911.742h-6.688A2.629,2.629,0,0,1,484.523,235a3.06,3.06,0,0,1,.744-1.911,2.563,2.563,0,0,1,1.911-.743Z" transform="translate(-446.095 -203.742)"/><path class="c" d="M477.413,232.346A2.628,2.628,0,0,1,480.067,235a3.052,3.052,0,0,1-.744,1.911,2.408,2.408,0,0,1-1.91.742h-6.688A2.628,2.628,0,0,1,468.071,235a3.054,3.054,0,0,1,.743-1.911,2.561,2.561,0,0,1,1.911-.743Z" transform="translate(-446.946 -203.742)"/><path class="d" d="M459.353,218.517a1.274,1.274,0,1,1-1.274,1.275A1.274,1.274,0,0,1,459.353,218.517Z" transform="translate(-452.771 -211.286)"/><path class="d" d="M456.83,233.658a1.274,1.274,0,1,1-1.274,1.274A1.273,1.273,0,0,1,456.83,233.658Z" transform="translate(-452.901 -210.503)"/><path class="c" d="M456.26,224.776a2.017,2.017,0,1,1-2.016,2.016A2.017,2.017,0,0,1,456.26,224.776Z" transform="translate(-447.661 -204.134)"/><path class="d" d="M512.7,255.714H454.312a1.405,1.405,0,0,1-1.381-1.38V243.718a1.406,1.406,0,0,1,1.381-1.38h1.7a1.38,1.38,0,0,1,0,2.76h-.424v7.962h55.73V245.1h-.424a1.38,1.38,0,1,1,0-2.76h1.7a1.406,1.406,0,0,1,1.381,1.38v10.616A1.254,1.254,0,0,1,512.7,255.714Z" transform="translate(-447.729 -203.225)"/><path class="d" d="M510.915,245.421H455.926a1.405,1.405,0,0,1-1.38-1.38,8.235,8.235,0,0,1,2.123-5.626,7.531,7.531,0,0,1,5.519-2.335,1.38,1.38,0,1,1,0,2.76,4.868,4.868,0,0,0-4.777,4.033h52.016a5.625,5.625,0,0,0-1.38-2.441,5.4,5.4,0,0,0-3.714-1.592,1.38,1.38,0,1,1,0-2.76,7.974,7.974,0,0,1,7.961,7.961A1.484,1.484,0,0,1,510.915,245.421Z" transform="translate(-447.645 -203.549)"/><path class="d" d="M504.343,239.686H495a1.38,1.38,0,1,1,0-2.76h7.962V226.842a4.6,4.6,0,0,0-4.565-4.565H467.614a4.6,4.6,0,0,0-4.564,4.565v10.085h7.961a1.38,1.38,0,1,1,0,2.76h-9.13a1.406,1.406,0,0,1-1.38-1.381V226.948a7.226,7.226,0,0,1,7.219-7.219H498.5a7.226,7.226,0,0,1,7.219,7.219v11.465A1.391,1.391,0,0,1,504.343,239.686Z" transform="translate(-447.337 -204.395)"/><path class="d" d="M487.637,238.841H477.022a1.38,1.38,0,1,1,0-2.76h10.615a1.38,1.38,0,1,1,0,2.76Z" transform="translate(-446.554 -203.549)"/><path class="d" d="M477.481,239.1h-6.688a4.032,4.032,0,0,1-4.034-4.034,4.3,4.3,0,0,1,1.169-2.866,4.1,4.1,0,0,1,2.866-1.167h6.688a4.031,4.031,0,0,1,4.033,4.033,3.988,3.988,0,0,1-4.033,4.034Zm-6.581-5.308a1.3,1.3,0,0,0-.955.424,1.343,1.343,0,0,0-.425.956,1.4,1.4,0,0,0,1.38,1.38h6.581a1.294,1.294,0,0,0,.955-.425,1.576,1.576,0,0,0,.425-.955,1.406,1.406,0,0,0-1.38-1.38Z" transform="translate(-447.014 -203.81)"/><path class="d" d="M493.933,239.1h-6.688a4.032,4.032,0,0,1-4.034-4.034,4.3,4.3,0,0,1,1.168-2.866,3.688,3.688,0,0,1,2.866-1.167h6.688a4.031,4.031,0,0,1,4.033,4.033,3.988,3.988,0,0,1-4.033,4.034Zm-6.688-5.308a1.3,1.3,0,0,0-.955.424,1.345,1.345,0,0,0-.425.956,1.405,1.405,0,0,0,1.38,1.38h6.688a1.293,1.293,0,0,0,.955-.425,1.569,1.569,0,0,0,.425-.955,1.406,1.406,0,0,0-1.38-1.38Z" transform="translate(-446.163 -203.81)"/><path class="d" d="M459.358,259.226a1.4,1.4,0,0,1-1.38-1.38v-4.034a1.38,1.38,0,0,1,2.76,0v4.034A1.406,1.406,0,0,1,459.358,259.226Z" transform="translate(-447.468 -202.704)"/><path class="d" d="M504.779,259.226a1.406,1.406,0,0,1-1.381-1.38v-4.034a1.38,1.38,0,0,1,2.76,0v4.034A1.4,1.4,0,0,1,504.779,259.226Z" transform="translate(-445.119 -202.704)"/><path class="d" d="M511.354,259.028h-55.73a1.38,1.38,0,0,1,0-2.761h55.73a1.405,1.405,0,0,1,1.38,1.381A1.574,1.574,0,0,1,511.354,259.028Z" transform="translate(-447.661 -202.505)"/><path class="d" d="M496.381,228.747h-34.5a1.38,1.38,0,1,1,0-2.76h34.5a1.38,1.38,0,1,1,0,2.76Z" transform="translate(-447.337 -204.071)"/><path class="d" d="M456.323,230.146a3.291,3.291,0,1,1,3.291-3.291A3.307,3.307,0,0,1,456.323,230.146Zm0-3.927a.637.637,0,1,0,.637.636A.684.684,0,0,0,456.323,226.218Z" transform="translate(-453.032 -211.025)"/><path class="d" d="M456.323,230.146a3.291,3.291,0,1,1,3.291-3.291A3.307,3.307,0,0,1,456.323,230.146Zm0-3.927a.637.637,0,1,0,.637.636A.684.684,0,0,0,456.323,226.218Z" transform="translate(-425.909 -219.625)"/><path class="d" d="M508.744,235.266a4.034,4.034,0,1,1,4.034-4.033A4.175,4.175,0,0,1,508.744,235.266Zm0-5.308a1.38,1.38,0,1,0,1.38,1.381A1.483,1.483,0,0,0,508.744,229.958Z" transform="translate(-439.637 -208.874)"/></g></g></g></svg>