<svg xmlns="http://www.w3.org/2000/svg" xmlns:xlink="http://www.w3.org/1999/xlink" width="90" height="90" viewBox="0 0 90 90"><defs><style>.a,.c{fill:#fff;}.a{stroke:#707070;}.b{clip-path:url(#a);}.d{fill:#b3b3b3;}</style><clipPath id="a"><rect class="a" width="90" height="90" transform="translate(570 2212)"/></clipPath></defs><g class="b" transform="translate(-570 -2212)"><g transform="translate(582.857 2226.143)"><g transform="translate(0 0)"><g transform="translate(1.507 5.26)"><g transform="translate(46.406)"><path class="c" d="M242.787,78.5a3.561,3.561,0,1,1-3.6,3.561A3.6,3.6,0,0,1,242.787,78.5Z" transform="translate(-239.19 -78.5)"/></g><g transform="translate(26.104 11.488)"><path class="c" d="M224.416,88.5a2.872,2.872,0,1,1-2.9,2.872A2.858,2.858,0,0,1,224.416,88.5Z" transform="translate(-221.517 -88.5)"/></g><g transform="translate(16.01 1.379)"><path class="c" d="M217.023,81.883v32.28H212.73V81.883a2.192,2.192,0,0,1,2.2-2.183,1.878,1.878,0,0,1,1.508.689A2.172,2.172,0,0,1,217.023,81.883Z" transform="translate(-212.73 -79.7)"/></g><g transform="translate(12.994 35.956)"><path class="c" d="M220.314,113.246v2.3H210.1v-2.3a3.474,3.474,0,0,1,3.481-3.446h3.133A3.431,3.431,0,0,1,220.314,113.246Z" transform="translate(-210.104 -109.8)"/></g><g transform="translate(24.712 24.469)"><path class="c" d="M251.281,100.6a2.753,2.753,0,0,1,.812,2.068,2.858,2.858,0,0,1-2.9,2.872H223.206a3.354,3.354,0,0,1-2.089-.8,2.753,2.753,0,0,1-.812-2.068,2.858,2.858,0,0,1,2.9-2.872h26.1A2.4,2.4,0,0,1,251.281,100.6Z" transform="translate(-220.305 -99.8)"/></g><g transform="translate(27.612 30.212)"><path class="c" d="M230.023,122.031h1.508v-5.744h-6.613L222.83,104.8h26.1l-2.668,14.819-1.741,9.534h-14.5Z" transform="translate(-222.83 -104.8)"/></g><g transform="translate(1.508 47.443)"><path class="c" d="M233.4,119.8v7.123h-33.3V119.8h33.3Z" transform="translate(-200.106 -119.8)"/></g><g transform="translate(0 41.7)"><path class="c" d="M235.107,114.8v5.744H198.793V114.8h36.314Z" transform="translate(-198.793 -114.8)"/></g></g><g transform="translate(19.606 39.493)"><path class="d" d="M219.653,117.145a1.528,1.528,0,0,1-1.508-1.493v-2.3a2.069,2.069,0,0,0-2.088-2.068,1.493,1.493,0,1,1,0-2.987,4.928,4.928,0,0,1,4.989,4.94v2.3A1.4,1.4,0,0,1,219.653,117.145Z" transform="translate(-214.548 -108.3)"/></g><g transform="translate(13.11 39.608)"><path class="d" d="M210.4,117.131a1.528,1.528,0,0,1-1.508-1.493v-2.3a4.927,4.927,0,0,1,4.988-4.94,1.493,1.493,0,1,1,0,2.987,2.07,2.07,0,0,0-2.088,2.068v2.3A1.4,1.4,0,0,1,210.4,117.131Z" transform="translate(-208.893 -108.4)"/></g><g transform="translate(15.893 5.26)"><path class="d" d="M217.233,115.835h-4.409a1.528,1.528,0,0,1-1.508-1.493V82.061a3.618,3.618,0,0,1,6.149-2.527,3.546,3.546,0,0,1,1.044,2.527v32.28A1.224,1.224,0,0,1,217.233,115.835Zm-2.9-2.872h1.508v-30.9c0-.23-.116-.459-.232-.459a.883.883,0,0,0-.464-.23.745.745,0,0,0-.7.689v30.9Z" transform="translate(-211.316 -78.5)"/></g><g transform="translate(34.804 33.961)"><path class="d" d="M243.788,130.843h-14.5a1.493,1.493,0,1,1,0-2.987h13.343l4.176-23.2a1.411,1.411,0,0,1,2.785.459l-4.409,24.469A1.477,1.477,0,0,1,243.788,130.843Z" transform="translate(-227.778 -103.485)"/></g><g transform="translate(27.594 33.961)"><path class="d" d="M225.115,117.862a1.373,1.373,0,0,1-1.391-1.149l-2.2-11.488a1.478,1.478,0,0,1,2.9-.574l2.2,11.488a1.522,1.522,0,0,1-1.159,1.723Z" transform="translate(-221.502 -103.485)"/></g><g transform="translate(0 45.466)"><path class="d" d="M235.3,122.116h-1.508a1.493,1.493,0,1,1,0-2.987v-2.757H200.5v2.872a1.493,1.493,0,1,1,0,2.987h-1.508a1.527,1.527,0,0,1-1.507-1.493v-5.744a1.527,1.527,0,0,1,1.507-1.493H235.3a1.528,1.528,0,0,1,1.508,1.493v5.744A1.606,1.606,0,0,1,235.3,122.116Z" transform="translate(-197.481 -113.5)"/></g><g transform="translate(1.507 51.095)"><path class="d" d="M233.6,128.624H200.3a1.528,1.528,0,0,1-1.508-1.493v-7.237A1.528,1.528,0,0,1,200.3,118.4h33.413a1.528,1.528,0,0,1,1.508,1.493v7.237A1.726,1.726,0,0,1,233.6,128.624Zm-31.9-2.872h30.512v-4.365H201.694Z" transform="translate(-198.793 -118.4)"/></g><g transform="translate(24.711 28.12)"><path class="d" d="M249.5,107.131H223.4a4.723,4.723,0,0,1-3.133-1.264A4.378,4.378,0,0,1,223.4,98.4h26.1a4.723,4.723,0,0,1,3.133,1.264,4.416,4.416,0,0,1,1.276,3.1A4.541,4.541,0,0,1,249.5,107.131Zm-26.1-5.744a1.528,1.528,0,0,0-1.508,1.493,1.4,1.4,0,0,0,.464,1.034,1.735,1.735,0,0,0,1.044.46h26.1a1.528,1.528,0,0,0,1.508-1.493,1.4,1.4,0,0,0-.464-1.034,1.425,1.425,0,0,0-1.044-.46Z" transform="translate(-218.992 -98.4)"/></g><g transform="translate(39.296 38.196)"><path class="d" d="M249.124,122.712a6.4,6.4,0,0,1-4.293-1.608l-.812-.8-11.833-10.569a1.451,1.451,0,0,1-.116-2.068,1.486,1.486,0,0,1,2.088-.115L246.8,118.922a3.673,3.673,0,0,0,6.033-2.642,3.035,3.035,0,0,0-.348-1.378l-1.856-4.25a1.313,1.313,0,0,1,.812-1.838,1.334,1.334,0,0,1,1.856.8l1.856,4.25a6.21,6.21,0,0,1,.58,2.527,6.435,6.435,0,0,1-5.453,6.318Z" transform="translate(-231.688 -107.171)"/></g><g transform="translate(26.103 15.254)"><path class="d" d="M224.612,95.931a4.365,4.365,0,1,1,4.409-4.365A4.385,4.385,0,0,1,224.612,95.931Zm0-5.744a1.493,1.493,0,1,0,1.508,1.493A1.528,1.528,0,0,0,224.612,90.187Z" transform="translate(-220.204 -87.2)"/></g><g transform="translate(3.015 29.728)"><path class="d" d="M203.7,106.922a3.561,3.561,0,1,1,3.6-3.561A3.6,3.6,0,0,1,203.7,106.922Zm0-4.25a.689.689,0,1,0,.7.689A.745.745,0,0,0,203.7,102.672Z" transform="translate(-200.106 -99.8)"/></g><g transform="translate(46.406 3.766)"><path class="d" d="M242.982,87.309a5.055,5.055,0,1,1,5.105-5.055A5.05,5.05,0,0,1,242.982,87.309Zm0-7.122a2.192,2.192,0,0,0-2.2,2.183,2.2,2.2,0,1,0,2.2-2.183Z" transform="translate(-237.878 -77.2)"/></g><path class="d" d="M381.655,483.375a1.813,1.813,0,0,1,.579,1.294,1.4,1.4,0,0,1-.579,1.294,1.852,1.852,0,0,1-1.308.575,1.912,1.912,0,0,1-1.887-1.869,1.553,1.553,0,0,1,.579-1.294,1.774,1.774,0,0,1,2.615,0Z" transform="translate(-321.846 -463.178)"/><path class="d" d="M377.818,460.875a1.812,1.812,0,0,1,.579,1.294,1.4,1.4,0,0,1-.579,1.294,2.174,2.174,0,0,1-1.307.575,1.912,1.912,0,0,1-1.888-1.869,1.555,1.555,0,0,1,.579-1.294,1.774,1.774,0,0,1,2.615,0Z" transform="translate(-369.898 -445.046)"/><path class="d" d="M343.782,459.675a1.815,1.815,0,0,1,.581,1.294,1.4,1.4,0,0,1-.581,1.294,2.171,2.171,0,0,1-1.307.575,1.912,1.912,0,0,1-1.887-1.869,1.554,1.554,0,0,1,.581-1.294,2.172,2.172,0,0,1,1.306-.575A1.849,1.849,0,0,1,343.782,459.675Z" transform="translate(-327.137 -459.1)"/></g></g></g></svg>