<svg xmlns="http://www.w3.org/2000/svg" xmlns:xlink="http://www.w3.org/1999/xlink" width="90" height="90" viewBox="0 0 90 90"><defs><style>.a,.c{fill:#fff;}.a{stroke:#707070;}.b{clip-path:url(#a);}.d{fill:#f39222;}.e{fill:#b01f2e;}</style><clipPath id="a"><rect class="a" width="90" height="90" transform="translate(1046 2212)"/></clipPath></defs><g class="b" transform="translate(-1046 -2212)"><g transform="translate(1053.714 2227.428)"><g transform="translate(0 0)"><path class="c" d="M120.378,579.42v9.1a1.711,1.711,0,0,1-1.733,1.734h-4.658a1.711,1.711,0,0,1-1.734-1.734v-3.683h2.166a5.794,5.794,0,0,0,5.634-4.442l.324-.975Z" transform="translate(-59.234 -532.413)"/><path class="c" d="M80.276,584.836h2.167v3.683a1.712,1.712,0,0,1-1.734,1.734H76.053a1.711,1.711,0,0,1-1.734-1.734v-9.1h.108l.216.975A5.915,5.915,0,0,0,80.276,584.836Z" transform="translate(-61.923 -532.413)"/><path class="c" d="M120.543,568.495a5.411,5.411,0,0,0-.759-.325c-7.583-3.358-30.115-3.683-40.19-.649a17.009,17.009,0,0,0-2.491.975,5.663,5.663,0,0,0-3.684,6.716l1.192,5.092.216.974a5.8,5.8,0,0,0,5.633,4.442h36.831a5.8,5.8,0,0,0,5.634-4.442l.216-.974,1.192-5.092A5.991,5.991,0,0,0,120.543,568.495Z" transform="translate(-61.999 -533.404)"/><path class="c" d="M107.917,554.131h.326a7.9,7.9,0,0,1,7.8,6.283l1.842,8.125a14.723,14.723,0,0,0-3.141-.759c-9.208-1.95-26.758-2.059-36.073.759l1.841-8.125a8.083,8.083,0,0,1,7.8-6.283Z" transform="translate(-61.614 -534.206)"/><path class="d" d="M116.659,568.848l-1.841-8.125a6.619,6.619,0,0,0-6.5-5.2H88.6a6.617,6.617,0,0,0-6.5,5.2l-1.842,8.125a1.34,1.34,0,0,1-2.6-.65l1.842-8.125a9.3,9.3,0,0,1,9.207-7.258h19.716a9.5,9.5,0,0,1,9.207,7.258l1.842,8.125a1.362,1.362,0,0,1-.975,1.625A1.459,1.459,0,0,1,116.659,568.848Z" transform="translate(-61.69 -534.299)"/><path class="d" d="M117.279,587.213H80.447a7.076,7.076,0,0,1-6.933-5.524l-1.408-6.067a7.079,7.079,0,0,1,4.658-8.341c.217-.108.434-.108.65-.216,3.466-1.517,9.425-2.276,13.217-2.491a101.875,101.875,0,0,1,15.166-.109c4.115.217,10.941.976,14.733,2.6a1.534,1.534,0,0,0,.649.216,7.012,7.012,0,0,1,4.55,8.341l-1.408,6.067A7.289,7.289,0,0,1,117.279,587.213ZM77.631,569.881a4.337,4.337,0,0,0-2.816,5.2l1.409,6.066a4.4,4.4,0,0,0,4.332,3.467h36.831a4.5,4.5,0,0,0,4.334-3.467l1.408-6.066a4.5,4.5,0,0,0-2.816-5.2,7.639,7.639,0,0,0-.866-.326c-6.608-2.924-26.432-3.575-37.049-1.191a6.111,6.111,0,0,1-1.083.216c-1.084.325-1.084.325-1.3.325A24.175,24.175,0,0,0,77.631,569.881Z" transform="translate(-62.093 -533.49)"/><path class="c" d="M81.521,571.833a3.358,3.358,0,1,1-3.358,3.358A3.307,3.307,0,0,1,81.521,571.833Z" transform="translate(-61.65 -532.951)"/><path class="c" d="M113.082,571.833a3.358,3.358,0,1,1-3.358,3.358A3.358,3.358,0,0,1,113.082,571.833Z" transform="translate(-59.414 -532.951)"/><path class="c" d="M78.607,565.654v1.192a1.434,1.434,0,0,1-1.408,1.408H73.3a1.434,1.434,0,0,1-1.408-1.408v-1.192a1.434,1.434,0,0,1,1.408-1.408h3.9A1.366,1.366,0,0,1,78.607,565.654Z" transform="translate(-62.095 -533.489)"/><path class="c" d="M122.814,565.654v1.192a1.434,1.434,0,0,1-1.408,1.408h-3.9a1.434,1.434,0,0,1-1.409-1.408v-1.192a1.434,1.434,0,0,1,1.409-1.408h3.9A1.366,1.366,0,0,1,122.814,565.654Z" transform="translate(-58.962 -533.489)"/><rect class="d" width="9.533" height="1.409" transform="translate(40.886 47.006)"/><rect class="d" width="9.533" height="1.409" transform="translate(23.229 47.006)"/><path class="d" d="M80.38,591.3a1.408,1.408,0,0,1,0-2.816.467.467,0,0,0,.434-.433v-3.684a1.408,1.408,0,0,1,2.816,0v3.684A3.33,3.33,0,0,1,80.38,591.3Z" transform="translate(-61.593 -532.162)"/><path class="d" d="M76.146,591.653A3.145,3.145,0,0,1,73,588.511v-9.1A1.434,1.434,0,0,1,74.412,578h.108a1.434,1.434,0,0,1,1.408,1.408.979.979,0,0,1-.108.542v8.557a.465.465,0,0,0,.434.434,1.434,1.434,0,0,1,1.408,1.408A1.623,1.623,0,0,1,76.146,591.653Z" transform="translate(-62.016 -532.514)"/><path class="d" d="M118.315,591.66a1.408,1.408,0,1,1,0-2.816.468.468,0,0,0,.434-.434v-8.557a.809.809,0,0,1-.109-.542,1.435,1.435,0,0,1,1.408-1.41h.108a1.436,1.436,0,0,1,1.408,1.41v9.1A3.33,3.33,0,0,1,118.315,591.66Z" transform="translate(-58.904 -532.521)"/><path class="d" d="M114.08,591.295a3.144,3.144,0,0,1-3.142-3.142V584.47a1.408,1.408,0,1,1,2.816,0v3.683a.466.466,0,0,0,.434.434,1.434,1.434,0,0,1,1.408,1.408A1.622,1.622,0,0,1,114.08,591.295Z" transform="translate(-59.327 -532.155)"/><path class="d" d="M81.614,580.051a4.766,4.766,0,1,1,4.766-4.766A4.809,4.809,0,0,1,81.614,580.051Zm0-6.824a2.056,2.056,0,0,0-2.058,2.058,1.992,1.992,0,0,0,2.058,2.059,2.059,2.059,0,0,0,0-4.117Z" transform="translate(-61.743 -533.044)"/><path class="d" d="M113.175,580.051a4.766,4.766,0,1,1,4.767-4.766A4.81,4.81,0,0,1,113.175,580.051Zm0-6.824a2.057,2.057,0,0,0-2.058,2.058,1.992,1.992,0,0,0,2.058,2.059,2.057,2.057,0,0,0,2.058-2.059A1.991,1.991,0,0,0,113.175,573.226Z" transform="translate(-59.507 -533.044)"/><path class="d" d="M111.609,576.369H84.528a1.408,1.408,0,1,1,0-2.816h27.081a1.408,1.408,0,1,1,0,2.816Z" transform="translate(-61.299 -532.829)"/><path class="d" d="M104.442,572.02H90.9a1.408,1.408,0,0,1,0-2.817h13.541a1.435,1.435,0,0,1,1.408,1.409A1.513,1.513,0,0,1,104.442,572.02Z" transform="translate(-60.847 -533.137)"/><path class="d" d="M121.5,569.757h-3.9a2.8,2.8,0,0,1-2.817-2.817v-1.192a2.8,2.8,0,0,1,2.817-2.815h3.9a2.8,2.8,0,0,1,2.816,2.815v1.192A2.868,2.868,0,0,1,121.5,569.757Zm-3.9-4.117h0l-.108,1.3a.106.106,0,0,0,.108.108h3.9a.106.106,0,0,0,.108-.108v-1.192a.106.106,0,0,0-.108-.108Z" transform="translate(-59.055 -533.582)"/><path class="d" d="M77.191,569.757h-3.9a2.8,2.8,0,0,1-2.816-2.817v-1.192a2.8,2.8,0,0,1,2.816-2.815h3.9a2.8,2.8,0,0,1,2.816,2.815v1.192A2.8,2.8,0,0,1,77.191,569.757Zm-3.9-4.117h0l-.109,1.3a.106.106,0,0,0,.109.108h3.9a.106.106,0,0,0,.108-.108v-1.192a.106.106,0,0,0-.108-.108Z" transform="translate(-62.195 -533.582)"/><path class="d" d="M98.725,561.919a1.371,1.371,0,0,1,0-1.949l6.825-6.825a1.379,1.379,0,0,1,1.95,1.949l-6.825,6.825A1.373,1.373,0,0,1,98.725,561.919Z" transform="translate(-60.222 -534.304)"/><path class="d" d="M92.453,562.954a1.371,1.371,0,0,1,0-1.949l4.116-4.117a1.379,1.379,0,0,1,1.95,1.951L94.4,562.954A1.371,1.371,0,0,1,92.453,562.954Z" transform="translate(-60.666 -534.039)"/><path class="d" d="M128.934,590.937H69.354a1.408,1.408,0,0,1,0-2.817h59.58a1.408,1.408,0,0,1,0,2.817Z" transform="translate(-62.374 -531.797)"/><g transform="translate(0 0)"><path class="c" d="M376.365,466.6a4.125,4.125,0,1,1,0,8.25,4.055,4.055,0,0,1-4.167-3.992A4.282,4.282,0,0,1,376.365,466.6Z" transform="translate(-309.975 -456.62)"/><path class="c" d="M336.474,461.6a3.327,3.327,0,1,1-3.36,3.327A3.311,3.311,0,0,1,336.474,461.6Z" transform="translate(-322.901 -458.273)"/><path class="e" d="M381.418,483.332a1.678,1.678,0,0,1,.536,1.2,1.293,1.293,0,0,1-.536,1.2,1.714,1.714,0,0,1-1.211.533,1.77,1.77,0,0,1-1.746-1.73,1.437,1.437,0,0,1,.536-1.2,1.642,1.642,0,0,1,2.421,0Z" transform="translate(-307.904 -451.262)"/><path class="e" d="M377.58,460.832a1.677,1.677,0,0,1,.536,1.2,1.3,1.3,0,0,1-.536,1.2,2.012,2.012,0,0,1-1.209.532,1.77,1.77,0,0,1-1.747-1.73,1.44,1.44,0,0,1,.536-1.2,1.642,1.642,0,0,1,2.421,0Z" transform="translate(-309.173 -458.703)"/><path class="e" d="M343.545,459.632a1.68,1.68,0,0,1,.538,1.2,1.292,1.292,0,0,1-.538,1.2,2.009,2.009,0,0,1-1.21.532,1.77,1.77,0,0,1-1.747-1.73,1.439,1.439,0,0,1,.538-1.2,2.011,2.011,0,0,1,1.209-.533A1.711,1.711,0,0,1,343.545,459.632Z" transform="translate(-320.429 -459.1)"/><path class="e" d="M328.4,465.832a1.679,1.679,0,0,1,.538,1.2,1.438,1.438,0,0,1-.538,1.2,2.009,2.009,0,0,1-1.209.532,1.77,1.77,0,0,1-1.747-1.73,1.439,1.439,0,0,1,.538-1.2,1.64,1.64,0,0,1,2.419,0Z" transform="translate(-325.439 -457.049)"/><path class="e" d="M336.908,470.413a5.057,5.057,0,1,1,5.107-5.057A5.168,5.168,0,0,1,336.908,470.413Zm0-6.653a1.73,1.73,0,1,0,1.747,1.73A1.861,1.861,0,0,0,336.908,463.76Z" transform="translate(-323.335 -458.703)"/><path class="e" d="M376.8,477.01a5.856,5.856,0,1,1,5.912-5.855A5.937,5.937,0,0,1,376.8,477.01Zm0-8.251a2.539,2.539,0,0,0-2.554,2.528,2.553,2.553,0,1,0,2.554-2.528Z" transform="translate(-310.409 -457.049)"/></g></g></g></g></svg>