<svg xmlns="http://www.w3.org/2000/svg" xmlns:xlink="http://www.w3.org/1999/xlink" width="90" height="90" viewBox="0 0 90 90"><defs><style>.a,.c{fill:#fff;}.a{stroke:#707070;}.b{clip-path:url(#a);}.d{fill:#b01f2e;}.e{fill:#f39222;}</style><clipPath id="a"><rect class="a" width="90" height="90" transform="translate(1505 2212)"/></clipPath></defs><g class="b" transform="translate(-1505 -2212)"><g transform="translate(1584.996 2221) rotate(90)"><g transform="translate(0 0)"><path class="c" d="M3.222,0A3.221,3.221,0,1,1,0,3.221,3.22,3.22,0,0,1,3.222,0Z" transform="translate(6.829 58.111)"/><path class="c" d="M3.994,0A3.994,3.994,0,1,1,0,3.994,3.995,3.995,0,0,1,3.994,0Z" transform="translate(61.591 59.657)"/><path class="c" d="M3.222,0A3.221,3.221,0,1,1,0,3.222,3.222,3.222,0,0,1,3.222,0Z" transform="translate(58.369 8.117)"/><path class="c" d="M25.384,0,23.838,19.2h0l-6.7,3.479L0,31.311V26.543L25.255,0Z" transform="translate(7.343 21.002)"/><path class="c" d="M25.383,26.543v4.768l-12.24-6.185-11.6-5.8L0,0H.258Z" transform="translate(42.004 21.002)"/><path class="c" d="M28.99,6.829V11.6H0V6.7L6.7,0h.257A7.462,7.462,0,0,0,14.43,6.829,7.552,7.552,0,0,0,21.9,0h.258Z" transform="translate(22.936 57.724)"/><path class="c" d="M13.659,37.108l1.288,16.107v1.159A7.459,7.459,0,0,1,7.474,61.2,7.554,7.554,0,0,1,0,54.374V53.215L1.289,36.98l1.547-19.2L4,3.221A3.5,3.5,0,0,1,7.474,0,3.431,3.431,0,0,1,9.793.9a3.65,3.65,0,0,1,1.161,2.319l1.159,14.561Z" transform="translate(29.892 3.221)"/><circle class="d" cx="1.546" cy="1.546" r="1.546" transform="translate(66.487 25.898)"/><path class="d" d="M1.546,0A1.546,1.546,0,1,1,0,1.546,1.546,1.546,0,0,1,1.546,0Z" transform="translate(55.148 54.89)"/><circle class="d" cx="1.546" cy="1.546" r="1.546" transform="translate(48.705 13.013)"/><path class="d" d="M1.546,0A1.546,1.546,0,1,1,0,1.546,1.546,1.546,0,0,1,1.546,0Z" transform="translate(19.714 13.014)"/><path class="d" d="M1.546,0A1.546,1.546,0,1,1,0,1.546,1.546,1.546,0,0,1,1.546,0Z" transform="translate(18.168 53.344)"/><path class="d" d="M1.547,0A1.546,1.546,0,1,1,0,1.546,1.546,1.546,0,0,1,1.547,0Z" transform="translate(8.503 21.131)"/><path class="e" d="M30.666,15.044H1.676A1.7,1.7,0,0,1,0,13.369v-4.9A1.573,1.573,0,0,1,.514,7.313L7.345.484A1.64,1.64,0,0,1,9.663,2.8L3.222,9.245v2.576h25.77V9.245L22.678,2.932A1.64,1.64,0,0,1,25,.612l6.829,6.829a1.919,1.919,0,0,1,.516,1.16v4.768A1.912,1.912,0,0,1,30.666,15.044Z" transform="translate(21.26 55.952)"/><path class="e" d="M26.9,34.629a1.625,1.625,0,0,1-.772-.13L2.287,22.516a1.7,1.7,0,0,1-.772-2.19,1.7,1.7,0,0,1,2.19-.772h0L25.223,30.376V28.83L.484,2.8A1.639,1.639,0,0,1,2.8.483L27.929,27.026a1.574,1.574,0,0,1,.387,1.16v4.9a1.782,1.782,0,0,1-.773,1.417A5.589,5.589,0,0,1,26.9,34.629Z" transform="translate(40.49 19.359)"/><path class="e" d="M1.675,34.758a2.392,2.392,0,0,1-.9-.258A1.481,1.481,0,0,1,0,33.084v-4.9a2.07,2.07,0,0,1,.387-1.16L25.513.483a1.64,1.64,0,1,1,2.32,2.32L3.351,28.96v1.546L24.868,19.554a1.614,1.614,0,1,1,1.546,2.834L2.449,34.629C2.192,34.629,1.933,34.758,1.675,34.758Z" transform="translate(5.669 19.23)"/><path class="e" d="M9.02,64.3A9.094,9.094,0,0,1,0,56.05V54.633L4,4.639A5.147,5.147,0,0,1,9.02,0,4.981,4.981,0,0,1,12.5,1.418a5.57,5.57,0,0,1,1.675,3.35L18.039,54.5v1.418A9.1,9.1,0,0,1,9.02,64.3Zm0-61.2A1.951,1.951,0,0,0,7.088,4.768L3.093,54.762v.9a5.824,5.824,0,0,0,11.6,0v-.9l-4-49.993a1.784,1.784,0,0,0-.644-1.288C9.923,3.222,9.536,3.092,9.02,3.092Z" transform="translate(28.346 1.803)"/><path class="d" d="M4.9,9.793a4.9,4.9,0,1,1,4.9-4.9A5.068,5.068,0,0,1,4.9,9.793Zm0-6.443A1.706,1.706,0,0,0,3.222,5.025,1.705,1.705,0,0,0,4.9,6.7,1.7,1.7,0,0,0,6.572,5.025,1.8,1.8,0,0,0,4.9,3.35Z" transform="translate(5.153 56.306)"/><path class="d" d="M4.9,9.793a4.9,4.9,0,1,1,4.9-4.9A4.979,4.979,0,0,1,4.9,9.793Zm0-6.443A1.706,1.706,0,0,0,3.221,5.026,1.7,1.7,0,0,0,4.9,6.7,1.7,1.7,0,0,0,6.57,5.026,1.791,1.791,0,0,0,4.9,3.35Z" transform="translate(56.694 6.441)"/><path class="d" d="M5.67,11.339A5.721,5.721,0,0,1,0,5.669,5.72,5.72,0,0,1,5.67,0a5.719,5.719,0,0,1,5.669,5.669A5.72,5.72,0,0,1,5.67,11.339Zm0-7.99A2.448,2.448,0,1,0,8.119,5.8,2.448,2.448,0,0,0,5.67,3.349Z" transform="translate(59.915 57.982)"/><path class="d" d="M16.492,6.571A1.707,1.707,0,0,1,14.816,4.9a1.674,1.674,0,0,0-3.349,0A1.706,1.706,0,0,1,9.792,6.571H1.675A1.706,1.706,0,0,1,0,4.9,1.7,1.7,0,0,1,1.675,3.221h6.7A4.718,4.718,0,0,1,12.885,0a4.894,4.894,0,0,1,4.9,4.9A1.345,1.345,0,0,1,16.492,6.571Z" transform="translate(0 1.546)"/><path class="d" d="M11.466,8.117A1.705,1.705,0,0,1,9.793,6.441a3.222,3.222,0,0,0-6.444,0A1.706,1.706,0,0,1,1.674,8.117,1.705,1.705,0,0,1,0,6.441,6.378,6.378,0,0,1,6.442,0a6.379,6.379,0,0,1,6.442,6.441A1.5,1.5,0,0,1,11.466,8.117Z" transform="translate(14.689)"/><path class="e" d="M1.676,7.989A1.707,1.707,0,0,1,0,6.313V1.675A1.705,1.705,0,0,1,1.676,0,1.7,1.7,0,0,1,3.351,1.675V6.313A1.706,1.706,0,0,1,1.676,7.989Z" transform="translate(48.576 42.005)"/><path class="e" d="M1.676,7.215A1.705,1.705,0,0,1,0,5.541V1.674A1.705,1.705,0,0,1,1.676,0,1.705,1.705,0,0,1,3.351,1.674V5.541A1.911,1.911,0,0,1,1.676,7.215Z" transform="translate(53.472 44.453)"/><path class="e" d="M1.676,7.989A1.707,1.707,0,0,1,0,6.313V1.675A1.706,1.706,0,0,1,1.676,0,1.7,1.7,0,0,1,3.349,1.675V6.313A1.706,1.706,0,0,1,1.676,7.989Z" transform="translate(22.806 42.005)"/><path class="e" d="M1.676,7.087A1.706,1.706,0,0,1,0,5.412V1.676A1.707,1.707,0,0,1,1.676,0,1.705,1.705,0,0,1,3.35,1.676V5.412A1.91,1.91,0,0,1,1.676,7.087Z" transform="translate(18.038 44.581)"/></g></g></g></svg>