<svg xmlns="http://www.w3.org/2000/svg" xmlns:xlink="http://www.w3.org/1999/xlink" width="90" height="90" viewBox="0 0 90 90"><defs><style>.a,.c{fill:#fff;}.a{stroke:#707070;}.b{clip-path:url(#a);}.d{fill:#f39222;}.e{fill:#b01f2e;}</style><clipPath id="a"><rect class="a" width="90" height="90" transform="translate(805 2212)"/></clipPath></defs><g class="b" transform="translate(-805 -2212)"><g transform="translate(819.143 2224.857)"><path class="c" d="M733.227,255.056v.665a3.432,3.432,0,1,1-6.864,0v-.665Z" transform="translate(-705.439 -196.823)"/><path class="c" d="M747.055,255.056v.665a3.432,3.432,0,1,1-6.864,0v-.665Z" transform="translate(-704.1 -196.823)"/><path class="c" d="M754.555,251.244a4.441,4.441,0,0,1-4.429,4.428h-25.8a4.441,4.441,0,0,1-4.428-4.428V248.7h34.652Z" transform="translate(-706.065 -197.439)"/><path class="c" d="M754.545,222.956v2.436H720v-2.547a4.441,4.441,0,0,1,4.429-4.428h25.684A4.536,4.536,0,0,1,754.545,222.956Z" transform="translate(-706.054 -200.371)"/><rect class="c" width="34.652" height="26.238" transform="translate(13.949 25.021)"/><path class="c" d="M718.936,204.589a2.768,2.768,0,1,1-2.767,2.767A2.768,2.768,0,0,1,718.936,204.589Z" transform="translate(-706.426 -201.71)"/><circle class="c" cx="2.768" cy="2.768" r="2.768" transform="translate(1.44 40.298)"/><path class="c" d="M759.975,229.822a3.433,3.433,0,1,1-3.432,3.433A3.433,3.433,0,0,1,759.975,229.822Z" transform="translate(-702.516 -199.267)"/><path class="d" d="M748.171,260.17h-1.106a1.439,1.439,0,1,1,0-2.878h1.106a3.094,3.094,0,0,0,3.1-3.1V223.083a3.094,3.094,0,0,0-3.1-3.1h-6.642a1.439,1.439,0,0,1,0-2.878h6.642a5.906,5.906,0,0,1,5.869,5.867V254.3A5.906,5.906,0,0,1,748.171,260.17Z" transform="translate(-704.11 -200.498)"/><path class="d" d="M727,260.16h-2.547a5.906,5.906,0,0,1-5.867-5.867v-31.22a5.906,5.906,0,0,1,5.867-5.867H731.1a1.465,1.465,0,0,1,1.439,1.438,1.347,1.347,0,0,1-1.328,1.329H724.57a3.093,3.093,0,0,0-3.1,3.1v31.22a3.094,3.094,0,0,0,3.1,3.1H727a1.465,1.465,0,0,1,1.439,1.439A1.448,1.448,0,0,1,727,260.16Z" transform="translate(-706.192 -200.488)"/><path class="d" d="M741.051,256.622h-8.3a1.439,1.439,0,0,1,0-2.878h8.3a1.466,1.466,0,0,1,1.439,1.439A1.642,1.642,0,0,1,741.051,256.622Z" transform="translate(-704.96 -196.95)"/><path class="d" d="M729.821,260.719a4.915,4.915,0,0,1-4.871-4.871v-.665a1.466,1.466,0,0,1,1.439-1.439h6.975a1.467,1.467,0,0,1,1.44,1.439v.665A5.09,5.09,0,0,1,729.821,260.719Zm-1.882-4.1a2.3,2.3,0,0,0,1.993,1.44,2.126,2.126,0,0,0,1.993-1.44Z" transform="translate(-705.576 -196.95)"/><path class="d" d="M743.75,260.719a4.914,4.914,0,0,1-4.871-4.871v-.665a1.465,1.465,0,0,1,1.439-1.439h6.863a1.466,1.466,0,0,1,1.439,1.439v.665A4.915,4.915,0,0,1,743.75,260.719Zm-1.993-4.1a2.3,2.3,0,0,0,1.993,1.44,2.127,2.127,0,0,0,1.993-1.44Z" transform="translate(-704.227 -196.95)"/><path class="d" d="M754.672,250.263H720.131a1.439,1.439,0,0,1,0-2.878h34.541a1.439,1.439,0,1,1,0,2.878Z" transform="translate(-706.182 -197.566)"/><path class="d" d="M754.672,226.342H720.131a1.44,1.44,0,0,1,0-2.879h34.541a1.44,1.44,0,0,1,0,2.879Z" transform="translate(-706.182 -199.882)"/><path class="d" d="M745.365,248.112a1.466,1.466,0,0,1-1.439-1.44V228.738a1.439,1.439,0,1,1,2.878,0v17.934A1.642,1.642,0,0,1,745.365,248.112Z" transform="translate(-703.739 -199.511)"/><path class="d" d="M741.529,248.112a1.465,1.465,0,0,1-1.439-1.44V228.738a1.439,1.439,0,0,1,2.879,0v17.934A1.467,1.467,0,0,1,741.529,248.112Z" transform="translate(-704.11 -199.511)"/><path class="d" d="M737.8,248.112a1.466,1.466,0,0,1-1.44-1.44V228.738a1.439,1.439,0,0,1,2.878,0v17.934A1.641,1.641,0,0,1,737.8,248.112Z" transform="translate(-704.471 -199.511)"/><path class="d" d="M733.959,248.112a1.466,1.466,0,0,1-1.439-1.44V228.738a1.44,1.44,0,0,1,2.879,0v17.934A1.467,1.467,0,0,1,733.959,248.112Z" transform="translate(-704.843 -199.511)"/><path class="d" d="M730.226,248.112a1.466,1.466,0,0,1-1.44-1.44V228.738a1.439,1.439,0,0,1,2.879,0v17.934A1.643,1.643,0,0,1,730.226,248.112Z" transform="translate(-705.204 -199.511)"/><path class="d" d="M726.389,248.112a1.466,1.466,0,0,1-1.439-1.44V228.738a1.439,1.439,0,0,1,2.878,0v17.934A1.466,1.466,0,0,1,726.389,248.112Z" transform="translate(-705.576 -199.511)"/><path class="d" d="M742.624,221.449h-12.4a1.466,1.466,0,0,1-1.44-1.439V203.4a1.439,1.439,0,1,1,2.879,0v15.278h9.743V203.514a1.439,1.439,0,0,1,2.878,0V220.12A1.906,1.906,0,0,1,742.624,221.449Z" transform="translate(-705.204 -201.964)"/><path class="d" d="M745.636,204.843H727.7a1.44,1.44,0,0,1,0-2.879h18.045a1.466,1.466,0,0,1,1.44,1.44A1.655,1.655,0,0,1,745.636,204.843Z" transform="translate(-705.449 -201.964)"/><path class="e" d="M759.182,205.9a1.328,1.328,0,1,1-1.328,1.328A1.329,1.329,0,0,1,759.182,205.9Z" transform="translate(-702.39 -201.584)"/><path class="e" d="M759.182,241.228a1.328,1.328,0,1,1-1.328,1.328A1.329,1.329,0,0,1,759.182,241.228Z" transform="translate(-702.39 -198.162)"/><path class="e" d="M757.971,217.307a1.328,1.328,0,1,1-1.327,1.327A1.328,1.328,0,0,1,757.971,217.307Z" transform="translate(-702.507 -200.479)"/><path class="e" d="M723.855,210.948a1.328,1.328,0,1,1-1.328,1.328A1.329,1.329,0,0,1,723.855,210.948Z" transform="translate(-705.811 -201.094)"/><path class="e" d="M713.762,224.876a1.329,1.329,0,1,1-1.328,1.329A1.329,1.329,0,0,1,713.762,224.876Z" transform="translate(-706.788 -199.746)"/><path class="e" d="M713.762,251.322a1.328,1.328,0,1,1-1.328,1.328A1.328,1.328,0,0,1,713.762,251.322Z" transform="translate(-706.788 -197.186)"/><path class="e" d="M710.029,204.69a1.328,1.328,0,1,1-1.33,1.328A1.328,1.328,0,0,1,710.029,204.69Z" transform="translate(-707.149 -201.701)"/><path class="e" d="M711.494,245.7A4.206,4.206,0,1,1,715.7,241.5,4.2,4.2,0,0,1,711.494,245.7Zm0-5.535a1.439,1.439,0,1,0,1.439,1.439A1.465,1.465,0,0,0,711.494,240.17Z" transform="translate(-707.286 -198.543)"/><path class="e" d="M719.063,211.691a4.207,4.207,0,1,1,4.206-4.207A4.205,4.205,0,0,1,719.063,211.691Zm0-5.536a1.439,1.439,0,1,0,1.439,1.439A1.4,1.4,0,0,0,719.063,206.155Z" transform="translate(-706.553 -201.838)"/><path class="e" d="M760.1,238.252a4.871,4.871,0,1,1,4.869-4.87A4.914,4.914,0,0,1,760.1,238.252Zm0-6.863a2.1,2.1,0,0,0-2.1,2.1,2.035,2.035,0,0,0,2.1,2.1,2.1,2.1,0,0,0,2.1-2.1A2.035,2.035,0,0,0,760.1,231.389Z" transform="translate(-702.644 -199.395)"/></g></g></svg>