<svg xmlns="http://www.w3.org/2000/svg" width="270.85" height="35.692" viewBox="0 0 270.85 35.692"><defs><style>.a{fill:#7a2c86;}.b{fill:#f39222;fill-rule:evenodd;}</style></defs><g transform="translate(-27.99 -110.631)"><path class="a" d="M275.719,133.67l-1.769,1.48c-1.93,1.61-3.88,3.23-5.96,4.75a45.941,45.941,0,0,1-6.62,4.161,19.056,19.056,0,0,1-7.56,2.239c-.6.031-180.03.031-180.7,0a19.48,19.48,0,0,1-7.64-2.239,45.942,45.942,0,0,1-6.62-4.161c-2.07-1.52-4.02-3.14-5.95-4.75l-1.78-1.48a28.524,28.524,0,0,0,2.89-2.589l1.34,1.169c1.881,1.641,3.73,3.26,5.66,4.741a41.664,41.664,0,0,0,5.95,3.949,16.667,16.667,0,0,0,6.39,2.045c.45.03,179.77.03,180.22,0a16.479,16.479,0,0,0,6.35-2.042,41.673,41.673,0,0,0,5.94-3.951c1.93-1.481,3.76-3.1,5.64-4.741l1.33-1.17A28.52,28.52,0,0,0,275.719,133.67Z"/><path class="a" d="M298.83,129.681l-.01-.031-.05-.469c-.02-.171-.02-.29-.06-.491-.06-.259-.14-.52-.22-.779a7,7,0,0,0-.271-.75l-.339-.591c-.12-.19-.23-.389-.36-.57l-.43-.5a9.277,9.277,0,0,0-4.1-2.56,14.372,14.372,0,0,0-8.65.32,22.726,22.726,0,0,0-7.13,4.071c-.38.31-.76.629-1.14.949-.74-.71-1.46-1.48-2.18-2.309-.81-.931-1.68-1.91-2.62-2.861a23.6,23.6,0,0,0-3.12-2.659,26.029,26.029,0,0,0-7.29-3.52,1.482,1.482,0,0,0-1.41.049l-.01.011a1.952,1.952,0,0,0-1.08,1.17,1.994,1.994,0,0,0,1.22,2.549l.02.011a22.825,22.825,0,0,1,6.119,3.1,29.828,29.828,0,0,1,4.991,4.94c.66.77,1.36,1.56,2.12,2.321a28.52,28.52,0,0,0,2.889,2.589c.271.19.541.391.811.58l.86.561.42.29.11.069.19.1.2.11c.56.31,1.07.611,1.671.91.659.291,1.329.6,1.988.851.671.21,1.321.46,2.012.619a15.1,15.1,0,0,0,8.629-.15,9.765,9.765,0,0,0,4.01-2.469,7.539,7.539,0,0,0,2.17-4.611l.03-.34.01-.16.01-.09C298.84,129.851,298.83,129.681,298.83,129.681Zm-4.045.349-.123.131c-.1,1.389-1.5,2.83-3.391,3.4a11.029,11.029,0,0,1-6.185.02c-.53-.13-1.064-.34-1.593-.5-.5-.2-.977-.431-1.468-.63-.509-.241-1.092-.58-1.632-.87l-.211-.11-.021-.011c.02.011-.04-.02-.061-.029l-.03-.02-.36-.241-.53-.339c.18-.141.35-.281.53-.42a18.989,18.989,0,0,1,5.89-3.221,10.665,10.665,0,0,1,6.131-.23,5.11,5.11,0,0,1,2.2,1.34l.19.21.13.231c.04.07.09.15.13.219s.02.09.04.13a.7.7,0,0,0,.08.111c.03.11.245.3.265.44l.235.31v.009Z"/><path class="b" d="M291.606,115.993a43.031,43.031,0,0,1,4.263-5.275c-.219.389-2.576,6.78-1.754,9.1a20.035,20.035,0,0,0-11.67,0c.811-2.258-1.39-8.748-1.593-9.155a59.493,59.493,0,0,1,4.1,5.149l3.408-5.176Z"/><path class="a" d="M68.49,118.161a1.97,1.97,0,0,0-1.09-1.17l-.01-.011a1.486,1.486,0,0,0-1.409-.049,26.168,26.168,0,0,0-7.291,3.52,24.263,24.263,0,0,0-3.12,2.659c-.93.951-1.8,1.93-2.61,2.861-.729.829-1.44,1.6-2.18,2.309-.38-.32-.77-.639-1.15-.949a22.726,22.726,0,0,0-7.13-4.071,14.343,14.343,0,0,0-8.64-.32,9.307,9.307,0,0,0-4.11,2.56l-.43.5c-.121.181-.24.38-.36.57l-.33.591a7.225,7.225,0,0,0-.28.75c-.08.259-.151.52-.22.779-.03.2-.05.32-.07.491l-.06.469v.031c0-.04-.01.31-.01.31l.015.039.013.16.031.34a7.55,7.55,0,0,0,2.17,4.611,9.759,9.759,0,0,0,4.012,2.469,15.133,15.133,0,0,0,8.639.15c.679-.159,1.329-.409,2-.619.67-.25,1.329-.56,1.99-.851.61-.3,1.11-.6,1.67-.91l.21-.11.18-.1.11-.069.43-.29.85-.561c.27-.189.54-.39.81-.58a28.524,28.524,0,0,0,2.89-2.589c.76-.761,1.471-1.551,2.13-2.321a29.818,29.818,0,0,1,4.98-4.94,23.147,23.147,0,0,1,6.12-3.1l.02-.011A1.991,1.991,0,0,0,68.49,118.161ZM47.13,131.17l-.36.241-.01.009a.03.03,0,0,0-.02.011c-.03.02-.07.04-.06.029l-.02.011-.2.11c-.55.29-1.12.629-1.64.87-.49.2-.96.429-1.46.63-.53.16-1.05.37-1.57.5a10.977,10.977,0,0,1-6.17-.02c-1.889-.57-3.24-2.011-3.34-3.4l-.02-.131-.01-.05.04-.339a2.8,2.8,0,0,1,.05-.44.386.386,0,0,0,.08-.111,1.037,1.037,0,0,0,.04-.13c.05-.069.089-.149.14-.219l.12-.231.2-.21a5.07,5.07,0,0,1,2.19-1.34,10.659,10.659,0,0,1,6.13.23,18.989,18.989,0,0,1,5.89,3.221c.18.139.36.279.53.42Z"/><path class="b" d="M35.238,115.993a43.03,43.03,0,0,0-4.263-5.275c.218.389,2.576,6.78,1.754,9.1a20.031,20.031,0,0,1,11.669,0c-.81-2.258,1.391-8.748,1.594-9.155a59.491,59.491,0,0,0-4.1,5.149l-3.409-5.176Z"/></g></svg>